<svg aria-hidden="true" style="position: absolute; width: 0; height: 0; overflow: hidden;" version="1.1" xmlns="http://www.w3.org/2000/svg" xmlns:xlink="http://www.w3.org/1999/xlink">
<defs>
<symbol id="icon-library_books" viewBox="0 0 24 24">
<title>library_books</title>
<path d="M18.984 6.984v-1.969h-9.984v1.969h9.984zM15 15v-2.016h-6v2.016h6zM18.984 11.016v-2.016h-9.984v2.016h9.984zM20.016 2.016q0.797 0 1.383 0.586t0.586 1.383v12q0 0.797-0.586 1.406t-1.383 0.609h-12q-0.797 0-1.406-0.609t-0.609-1.406v-12q0-0.797 0.609-1.383t1.406-0.586h12zM3.984 6v14.016h14.016v1.969h-14.016q-0.797 0-1.383-0.586t-0.586-1.383v-14.016h1.969z"></path>
</symbol>
<symbol id="icon-archive" viewBox="0 0 32 32">
<title>archive</title>
<path d="M13.070 5.202l-5.796-1.553c-0.533-0.143-1.081 0.174-1.224 0.707l-5.953 22.216c-0.143 0.534 0.174 1.082 0.708 1.226l5.795 1.553c0.533 0.143 1.082-0.174 1.225-0.707l5.953-22.217c0.142-0.533-0.174-1.082-0.708-1.225zM7.78 24.943c-0.429 1.601-2.073 2.55-3.674 2.121s-2.55-2.073-2.121-3.674 2.073-2.551 3.674-2.121c1.601 0.429 2.55 2.074 2.121 3.674zM8.929 20.657l-5.795-1.553 3.105-11.591 5.796 1.554-3.106 11.59zM18.938 23c-0.829 0-1.5 0.672-1.5 1.5s0.671 1.5 1.5 1.5c0.828 0 1.5-0.672 1.5-1.5s-0.672-1.5-1.5-1.5zM10.811 9.773l-3.865-1.035-0.258 0.966 3.864 1.035 0.259-0.966zM10.033 12.671l0.26-0.966-3.864-1.035-0.259 0.966 3.863 1.035zM5.255 22.778c-0.8-0.215-1.623 0.261-1.837 1.061-0.215 0.801 0.26 1.623 1.061 1.837 0.8 0.215 1.623-0.26 1.837-1.061s-0.261-1.622-1.061-1.837zM29.938 9h-4v1h4v-1zM29.938 13h-4v1h4v-1zM29.938 11h-4v1h4v-1zM27.938 23c-0.829 0-1.5 0.672-1.5 1.5s0.671 1.5 1.5 1.5c0.828 0 1.5-0.672 1.5-1.5s-0.672-1.5-1.5-1.5zM30.938 4h-6c-0.553 0-1 0.447-1 1v23c0 0.552 0.447 1 1 1h6c0.552 0 1-0.448 1-1v-23c0-0.553-0.449-1-1-1zM27.938 27.5c-1.657 0-3-1.344-3-3 0-1.657 1.343-3 3-3 1.656 0 3 1.343 3 3 0 1.656-1.344 3-3 3zM30.938 20h-6v-12h6v12zM20.938 9h-4v1h4v-1zM20.938 13h-4v1h4v-1zM21.938 4h-6c-0.553 0-1 0.447-1 1v23c0 0.552 0.447 1 1 1h6c0.552 0 1-0.448 1-1v-23c0-0.553-0.449-1-1-1zM18.938 27.438c-1.657 0-3-1.344-3-3 0-1.657 1.343-3 3-3 1.656 0 3 1.343 3 3 0 1.656-1.344 3-3 3zM21.938 20h-6v-12h6v12zM20.938 11h-4v1h4v-1zM5.652 13.567l3.863 1.035 0.26-0.966-3.864-1.035-0.259 0.966z"></path>
</symbol>
<symbol id="icon-suitcase" viewBox="0 0 32 32">
<title>suitcase</title>
<path d="M28 29h-24c-1.104 0-2-0.896-2-2v-9h4v3h4v-3h12v3h4v-3h4v9c0 1.104-0.896 2-2 2zM23 20v-4h2v4h-2zM7 20v-4h2v4h-2zM26 15h-4v2h-12v-2h-4v2h-4v-7c0-1.104 0.896-2 2-2h24c1.104 0 2 0.896 2 2v7h-4v-2zM19 4.979h-6v2.021h-2v-0.979h1v-3.021h8.021v3h0.979v1h-2v-2.021z"></path>
</symbol>
<symbol id="icon-suitcase1" viewBox="0 0 32 32">
<title>suitcase1</title>
<path d="M27 29h-23c-1.105 0-2-0.896-2-2v-12c0 0 5.221 2.685 10 3.784v1.216c0 0.553 0.447 1 1 1h5c0.552 0 1-0.447 1-1v-1.216c4.778-1.099 10-3.784 10-3.784v12c0 1.104-0.896 2-2 2zM17 17c0.552 0 1 0.447 1 1v1c0 0.553-0.448 1-1 1h-3c-0.553 0-1-0.447-1-1v-1c0-0.553 0.447-1 1-1h3zM19 17c0-0.553-0.448-1-1-1h-5c-0.553 0-1 0.447-1 1v0.896c-4.779-1.132-10-3.896-10-3.896v-4c0-1.104 0.895-2 2-2h6v-2c0-1.104 0.896-2 2-2h7c1.104 0 2 0.896 2 2v2h6c1.104 0 2 0.896 2 2v4c0 0-5.222 2.764-10 3.896v-0.896zM19 7c0-0.553-0.448-1-1-1h-5c-0.553 0-1 0.447-1 1 0 0.552 0 1 0 1h7c0 0 0-0.448 0-1z"></path>
</symbol>
<symbol id="icon-study" viewBox="0 0 32 32">
<title>study</title>
<path d="M32 8c0-1.406-0.957-2.608-2.326-2.924l-13.013-3.003c-0.218-0.049-0.44-0.073-0.661-0.073s-0.443 0.024-0.675 0.076l-12.999 3c-1.37 0.316-2.326 1.518-2.326 2.924s0.957 2.608 2.325 2.924l2.675 0.617v8.459c0 2.654 3.038 5 11 5s11-2.346 11-5v-8.459l2.674-0.617c1.369-0.316 2.326-1.518 2.326-2.924zM25 20c0 1.105-3 3-9 3s-9-1.895-9-3v-7.997l8.338 1.924c0.218 0.049 0.441 0.073 0.662 0.073s0.444-0.024 0.674-0.076l8.326-1.921v7.997zM16.225 11.975c-0.075 0.016-0.15 0.025-0.225 0.025s-0.151-0.009-0.225-0.025l-13-3c-0.454-0.105-0.775-0.509-0.775-0.975s0.321-0.87 0.775-0.975l13-3c0.074-0.016 0.149-0.025 0.225-0.025s0.151 0.009 0.225 0.025l13 3c0.453 0.105 0.775 0.509 0.775 0.975s-0.322 0.87-0.775 0.975l-13 3zM29 13c0-0.553 0.447-1 1-1 0.552 0 1 0.447 1 1v9c0 0.553-0.448 1-1 1-0.553 0-1-0.447-1-1v-9zM30 24c1.104 0 2 2.896 2 4s-0.896 2-2 2c-1.105 0-2-0.896-2-2s0.895-4 2-4z"></path>
</symbol>
<symbol id="icon-world" viewBox="0 0 32 32">
<title>world</title>
<path d="M15.5 0c-8.561 0-15.5 6.939-15.5 15.5s6.939 15.5 15.5 15.5 15.5-6.939 15.5-15.5-6.939-15.5-15.5-15.5zM28.975 15h-5.996c-0.055-2.215-0.449-4.331-1.148-6.268 1.35-0.563 2.598-1.312 3.736-2.197 2.023 2.271 3.288 5.22 3.408 8.465zM14.947 28.972c-1.662-1.384-3.056-3.181-4.076-5.268 1.309-0.409 2.696-0.633 4.129-0.679v5.949c-0.018 0-0.035-0.001-0.053-0.002zM16.051 2.028c1.886 1.57 3.425 3.673 4.466 6.126-1.426 0.487-2.941 0.77-4.518 0.82v-6.949c0.019 0.001 0.035 0.002 0.052 0.003zM17.717 2.198c2.76 0.459 5.236 1.748 7.164 3.614-1.047 0.803-2.191 1.483-3.428 1.998-0.91-2.157-2.187-4.064-3.736-5.612zM15 2.025v6.949c-1.577-0.051-3.093-0.333-4.518-0.82 1.041-2.453 2.58-4.556 4.466-6.126 0.018-0.001 0.034-0.002 0.052-0.003zM9.546 7.811c-1.235-0.515-2.38-1.195-3.427-1.998 1.927-1.866 4.404-3.155 7.164-3.614-1.55 1.547-2.826 3.454-3.737 5.612zM10.105 9.076c1.542 0.535 3.185 0.847 4.895 0.899v5.025h-5.979c0.054-2.094 0.425-4.095 1.084-5.924zM15 16v6.025c-1.577 0.048-3.102 0.306-4.539 0.769-0.866-2.062-1.377-4.359-1.44-6.794h5.979zM13.283 28.802c-2.473-0.411-4.719-1.488-6.545-3.052 0.985-0.683 2.050-1.261 3.188-1.7 0.872 1.808 2.013 3.413 3.357 4.752zM16 28.975v-5.949c1.432 0.046 2.82 0.27 4.129 0.679-1.021 2.087-2.414 3.884-4.076 5.268-0.017 0-0.035 0.001-0.053 0.002zM21.074 24.050c1.137 0.439 2.201 1.018 3.188 1.7-1.826 1.563-4.072 2.641-6.545 3.052 1.344-1.339 2.484-2.944 3.357-4.752zM20.539 22.794c-1.438-0.463-2.963-0.721-4.539-0.769v-6.025h5.979c-0.063 2.435-0.575 4.732-1.44 6.794zM16 15v-5.025c1.709-0.052 3.352-0.363 4.895-0.898 0.658 1.829 1.029 3.83 1.084 5.924h-5.979zM5.434 6.535c1.138 0.885 2.386 1.634 3.735 2.197-0.699 1.937-1.093 4.053-1.148 6.268h-5.996c0.12-3.245 1.385-6.194 3.409-8.465zM2.025 16h5.996c0.062 2.555 0.596 4.968 1.503 7.137-1.267 0.494-2.448 1.152-3.538 1.931-2.348-2.337-3.83-5.532-3.961-9.068zM25.014 25.067c-1.090-0.778-2.271-1.437-3.539-1.931 0.908-2.169 1.441-4.582 1.504-7.137h5.996c-0.131 3.537-1.614 6.732-3.961 9.068z"></path>
</symbol>
<symbol id="icon-user" viewBox="0 0 32 32">
<title>user</title>
<path d="M31.11 28.336c-0.201-0.133-3.848-2.525-9.273-3.699 1.99-2.521 3.268-5.912 3.811-8.169 0.754-3.128 0.461-9.248-2.543-13.062-1.756-2.229-4.213-3.406-7.105-3.406s-5.349 1.178-7.104 3.406c-3.004 3.813-3.296 9.933-2.543 13.061 0.543 2.257 1.82 5.648 3.811 8.169-5.425 1.174-9.072 3.566-9.272 3.699-0.733 0.488-1.061 1.4-0.805 2.242 0.254 0.845 1.033 1.423 1.913 1.423h28c0.881 0 1.658-0.578 1.914-1.422 0.257-0.842-0.071-1.754-0.804-2.242zM20.267 23.398l-0.326 0.414c-2.385 2.74-5.495 2.74-7.879 0l-0.327-0.414c-2.785-3.529-4.167-8.197-3.572-12.65 0.545-4.279 2.997-8.748 7.837-8.748s7.293 4.47 7.838 8.749c0.593 4.455-0.784 9.118-3.571 12.649zM2 30c0.138-0.092 3.526-2.314 8.586-3.408l2.484-0.537c0.887 0.582 1.86 0.945 2.93 0.945 1.071 0 2.043-0.363 2.93-0.945l2.484 0.537c5.020 1.086 8.396 3.283 8.586 3.408h-28z"></path>
</symbol>
<symbol id="icon-like" viewBox="0 0 32 32">
<title>like</title>
<path d="M29.164 10.472c-1.25-0.328-4.189-0.324-8.488-0.438 0.203-0.938 0.25-1.784 0.25-3.286 0-3.588-2.614-6.748-4.926-6.748-1.633 0-2.979 1.335-3 2.977-0.022 2.014-0.645 5.492-4 7.256-0.246 0.13-0.95 0.477-1.053 0.522l0.053 0.045c-0.525-0.453-1.253-0.8-2-0.8h-3c-1.654 0-3 1.346-3 3v16c0 1.654 1.346 3 3 3h3c1.19 0 2.186-0.719 2.668-1.727 0.012 0.004 0.033 0.010 0.047 0.012 0.066 0.018 0.144 0.037 0.239 0.062 0.018 0.005 0.027 0.007 0.046 0.012 0.576 0.143 1.685 0.408 4.055 0.953 0.508 0.116 3.192 0.688 5.972 0.688h5.467c1.666 0 2.867-0.641 3.582-1.928 0.010-0.020 0.24-0.469 0.428-1.076 0.141-0.457 0.193-1.104 0.023-1.76 1.074-0.738 1.42-1.854 1.645-2.58 0.377-1.191 0.264-2.086 0.002-2.727 0.604-0.57 1.119-1.439 1.336-2.766 0.135-0.822-0.010-1.668-0.389-2.372 0.566-0.636 0.824-1.436 0.854-2.176l0.012-0.209c0.007-0.131 0.013-0.212 0.013-0.5 0-1.263-0.875-2.874-2.836-3.434zM7 29c0 0.553-0.447 1-1 1h-3c-0.553 0-1-0.447-1-1v-16c0-0.553 0.447-1 1-1h3c0.553 0 1 0.447 1 1v16zM29.977 14.535c-0.020 0.494-0.227 1.465-1.977 1.465-1.5 0-2 0-2 0-0.277 0-0.5 0.224-0.5 0.5s0.223 0.5 0.5 0.5c0 0 0.438 0 1.938 0s1.697 1.244 1.6 1.844c-0.124 0.746-0.474 2.156-2.163 2.156-1.687 0-2.375 0-2.375 0-0.277 0-0.5 0.223-0.5 0.5 0 0.275 0.223 0.5 0.5 0.5 0 0 1.188 0 1.969 0 1.688 0 1.539 1.287 1.297 2.055-0.319 1.009-0.514 1.945-2.641 1.945-0.719 0-1.631 0-1.631 0-0.277 0-0.5 0.223-0.5 0.5 0 0.275 0.223 0.5 0.5 0.5 0 0 0.693 0 1.568 0 1.094 0 1.145 1.035 1.031 1.406-0.125 0.406-0.273 0.707-0.279 0.721-0.302 0.545-0.789 0.873-1.82 0.873h-5.467c-2.746 0-5.47-0.623-5.54-0.639-4.154-0.957-4.373-1.031-4.634-1.105 0 0-0.846-0.143-0.846-0.881l-0.007-13.812c0-0.469 0.299-0.893 0.794-1.042 0.062-0.024 0.146-0.050 0.206-0.075 4.568-1.892 5.959-6.040 6-9.446 0.006-0.479 0.375-1 1-1 1.057 0 2.926 2.122 2.926 4.748 0 2.371-0.096 2.781-0.926 5.252 10 0 9.93 0.144 10.812 0.375 1.094 0.313 1.188 1.219 1.188 1.531 0 0.343-0.010 0.293-0.023 0.629zM4.5 26c-0.828 0-1.5 0.672-1.5 1.5s0.672 1.5 1.5 1.5 1.5-0.672 1.5-1.5-0.672-1.5-1.5-1.5zM4.5 28c-0.275 0-0.5-0.225-0.5-0.5s0.225-0.5 0.5-0.5 0.5 0.225 0.5 0.5-0.225 0.5-0.5 0.5z"></path>
</symbol>
<symbol id="icon-cloud" viewBox="0 0 32 32">
<title>cloud</title>
<path d="M25.914 13.143c-0.437-4.563-4.236-8.143-8.914-8.143-3.619 0-6.717 2.148-8.146 5.23-0.43-0.136-0.878-0.23-1.353-0.23-2.485 0-4.5 2.016-4.5 4.5 0 0.494 0.099 0.961 0.246 1.404-1.933 1.127-3.246 3.195-3.246 5.594 0 3.59 2.91 6.5 6.5 6.5v0.002l17.999-0.002c4.143 0 7.5-3.357 7.5-7.5 0-3.656-2.621-6.693-6.086-7.355zM24.5 25.998v0.002h-17.999c-2.481-0.002-4.5-2.020-4.5-4.502 0-1.6 0.843-3.045 2.254-3.867 1.371-0.787 1.465-0.943 0.89-2.357-0.097-0.291-0.144-0.544-0.144-0.773 0-1.379 1.121-2.5 2.5-2.5 0 0 0.656-0.047 1.353 0.23 1.147 0.457 1.272 0.020 1.814-1.159 1.147-2.473 3.632-4.072 6.332-4.072 3.6 0 6.576 2.723 6.924 6.334 0.123 1.432 0.123 1.432 1.615 1.773 2.586 0.494 4.461 2.762 4.461 5.391 0 3.033-2.467 5.5-5.5 5.5z"></path>
</symbol>
<symbol id="icon-cloud1" viewBox="0 0 32 32">
<title>cloud1</title>
<path d="M7.101 15.102c-1.776 0.41-3.101 2.002-3.101 3.898 0 2.209 1.798 4 4.003 4h16.994c2.211 0 4.003-1.795 4.003-4 0-1.877-1.299-3.453-3.042-3.884v0c0.028-0.202 0.042-0.407 0.042-0.616 0-2.485-2.015-4.5-4.5-4.5-1.226 0-2.337 0.49-3.148 1.285-0.991-1.949-3.015-3.285-5.352-3.285-3.314 0-6 2.686-6 6 0 0.377 0.035 0.745 0.101 1.102v0zM26.999 14.415c1.768 0.771 3.001 2.534 3.001 4.585 0 2.756-2.238 5-4.999 5h-17.001c-2.767 0-4.999-2.239-4.999-5 0-2.051 1.24-3.818 3.012-4.588v0c-0.008-0.136-0.012-0.273-0.012-0.412 0-3.866 3.134-7 7-7 2.298 0 4.337 1.107 5.614 2.817 0.839-0.518 1.828-0.817 2.886-0.817 3.009 0 5.454 2.416 5.499 5.415v0 0z"></path>
</symbol>
<symbol id="icon-cloud2" viewBox="0 0 32 32">
<title>cloud2</title>
<path d="M6.101 16.102c-1.776 0.41-3.101 2.002-3.101 3.898 0 2.209 1.798 4 4.003 4h16.994c2.211 0 4.003-1.795 4.003-4 0-1.868-1.285-3.437-3.016-3.877v0c-0.191-2.309-2.126-4.123-4.484-4.123-1.076 0-2.064 0.378-2.839 1.008-0.821-2.335-3.046-4.008-5.661-4.008-3.314 0-6 2.686-6 6 0 0.377 0.035 0.745 0.101 1.102v0zM25.883 15.366c1.83 0.743 3.117 2.538 3.117 4.634 0 2.756-2.238 5-4.999 5h-17.001c-2.767 0-4.999-2.239-4.999-5 0-2.051 1.24-3.818 3.012-4.588v0c-0.008-0.136-0.012-0.273-0.012-0.412 0-3.866 3.134-7 7-7 2.613 0 4.891 1.431 6.094 3.553 0.727-0.354 1.543-0.553 2.406-0.553 2.649 0 4.86 1.872 5.383 4.366v0 0z"></path>
</symbol>
<symbol id="icon-award" viewBox="0 0 32 32">
<title>award</title>
<path d="M15.626 20.992l-4.025 10.485-1.726-3.876-3.876 1.726 3.978-10.363c1.581 1.202 3.53 1.945 5.648 2.028v0zM22.074 18.964l3.978 10.363-3.876-1.726-1.726 3.876-4.025-10.485c2.119-0.083 4.068-0.826 5.648-2.028v0 0zM16.026 20c4.971 0 9-4.029 9-9s-4.029-9-9-9c-4.971 0-9 4.029-9 9s4.029 9 9 9v0zM16.026 13.692l-3.5 2.308 1.5-4-3-2h3.5l1.5-4 1.5 4h3.5l-3 2 1.5 4-3.5-2.308z"></path>
</symbol>
<symbol id="icon-award1" viewBox="0 0 32 32">
<title>award1</title>
<path d="M16.007 20l-4.406 11.477-1.726-3.876-3.876 1.726 4.353-11.34c-2.030-1.65-3.327-4.167-3.327-6.987 0-4.971 4.029-9 9-9s9 4.029 9 9c0 2.82-1.297 5.337-3.327 6.987l4.353 11.34-3.876-1.726-1.726 3.876-4.406-11.477c-0.006 0-0.013 0-0.019 0s-0.013 0-0.019-0v0 0zM14.96 19.938v0 0c-1.375-0.162-2.655-0.634-3.768-1.345l-3.398 8.852 2.584-1.15 1.15 2.584 3.432-8.941zM20.86 18.593v0 0c-1.113 0.71-2.393 1.183-3.768 1.345l3.432 8.941 1.15-2.584 2.584 1.15-3.398-8.852zM16.026 19c4.418 0 8-3.582 8-8s-3.582-8-8-8c-4.418 0-8 3.582-8 8s3.582 8 8 8v0zM16.026 17v0c-3.314 0-6-2.686-6-6s2.686-6 6-6c3.314 0 6 2.686 6 6s-2.686 6-6 6zM16.026 16c2.761 0 5-2.239 5-5s-2.239-5-5-5c-2.761 0-5 2.239-5 5s2.239 5 5 5v0z"></path>
</symbol>
<symbol id="icon-award2" viewBox="0 0 32 32">
<title>award2</title>
<path d="M10 18.001v12.999l6-6 6 6v-12.999c-1.671 1.255-3.749 1.999-6 1.999s-4.329-0.744-6-1.999v0 0zM16 19c4.971 0 9-4.029 9-9s-4.029-9-9-9c-4.971 0-9 4.029-9 9s4.029 9 9 9v0zM16 12.692l-3.5 2.308 1.5-4-3-2h3.5l1.5-4 1.5 4h3.5l-3 2 1.5 4-3.5-2.308z"></path>
</symbol>
<symbol id="icon-award3" viewBox="0 0 32 32">
<title>award3</title>
<path d="M10 16.708v0 0c-1.841-1.648-3-4.043-3-6.708 0-4.971 4.029-9 9-9s9 4.029 9 9c0 2.665-1.159 5.060-3 6.708v14.292l-6-6-6 6v-14.292zM11 17.484v11.116l5-5 5 5v-11.116c-1.43 0.957-3.15 1.516-5 1.516s-3.57-0.558-5-1.516v0 0zM16 18c4.418 0 8-3.582 8-8s-3.582-8-8-8c-4.418 0-8 3.582-8 8s3.582 8 8 8v0zM16 12.692l-3.5 2.308 1.5-4-3-2h3.5l1.5-4 1.5 4h3.5l-3 2 1.5 4-3.5-2.308z"></path>
</symbol>
<symbol id="icon-award4" viewBox="0 0 32 32">
<title>award4</title>
<path d="M10 18.001v12.999l6-6 6 6v-12.999c-1.671 1.255-3.749 1.999-6 1.999s-4.329-0.744-6-1.999v0 0zM16 19v0c-4.971 0-9-4.029-9-9s4.029-9 9-9c4.971 0 9 4.029 9 9s-4.029 9-9 9zM16 16c3.314 0 6-2.686 6-6s-2.686-6-6-6c-3.314 0-6 2.686-6 6s2.686 6 6 6v0zM16 15c2.761 0 5-2.239 5-5s-2.239-5-5-5c-2.761 0-5 2.239-5 5s2.239 5 5 5v0z"></path>
</symbol>
<symbol id="icon-new-window" viewBox="0 0 32 32">
<title>new-window</title>
<path d="M32 0h-24v8c-2.906 0-8 0-8 0v24h24v-8h8v-24zM20 28h-16v-12h4v8h12c0 1.789 0 4 0 4zM28 20h-16v-12h16v12z"></path>
</symbol>
<symbol id="icon-earth" viewBox="0 0 32 32">
<title>earth</title>
<path d="M16 32c-8.836 0-16-7.164-16-16s7.164-16 16-16c8.836 0 16 7.164 16 16s-7.164 16-16 16zM28.968 14.659c0.026-0.013 0.040-0.035 0.050-0.070 0.021 0.111 0.072 0.209 0.154 0.281 0.002 0.010-0.003 0.008 0.002 0.022 0.008 0 0.014-0.006 0.021-0.006 0.084 0.068 0.188 0.114 0.305 0.114 0.18 0 0.33-0.1 0.418-0.241 0.006 0.007 0.016 0.016 0.021 0.024-0.001-0.016-0.003-0.032-0.005-0.048 0.039-0.071 0.066-0.149 0.066-0.235 0-0.276-0.225-0.5-0.5-0.5-0.176 0-0.322 0.096-0.412 0.232-0.004-0.003 0-0.015-0.011-0.011 0.013-0.038-0.022-0.135-0.077-0.239v0.518c0 0.057-0.016 0.108-0.032 0.159zM5.992 14.509c0-0.151-0.344-0.408-0.433-0.408 0-0.027-0.14-0.335-0.193-0.335 0-0.104-0.365-0.571-0.423-0.367-0.038 0.132 0.279 0.31 0.279 0.463 0.059 0 0.307 0.47 0.356 0.552 0.542 0.916-0.405 0.29-0.405-0.098-0.121-0.060-0.312-0.521-0.312-0.647-0.071-0.057-0.281-0.502-0.264-0.502 0-0.292-0.161-0.432-0.481-0.432-0.015-0.029-0.284-0.407-0.289-0.407 0-0.12-0.216-0.492-0.336-0.551 0-0.249-0.128-0.556-0.071-0.814 0-0.271-0.014-0.578-0.106-0.856-0.835 1.793-1.314 3.785-1.314 5.893 0 6.041 3.834 11.174 9.196 13.137 0.006-0.496 0.043-1.090 0.156-1.090 0-0.074 0.063-0.384 0.12-0.384 0-0.19 0.023-0.419 0-0.647-0.071-0.143 0.094-0.326 0.144-0.551 0.277-0.139 0.081-1.533 0.29-1.533 0-0.697 0.156-1.103 0.047-1.749 0.053 0-0.315-0.391-0.312-0.384-0.353 0-0.6-0.566-0.6-0.814-0.034-0.109-0.121-0.272-0.121-0.407 0.081 0-0.505-0.856-0.505-0.839-0.31-0.172 0.017-0.412 0.048-0.694-0.269-0.089 0.003-0.815 0.12-0.815 0.012-0.092 0.060-0.155 0.145-0.191 0.060 0.239 0.339-0.119 0.12-0.119 0-0.158-0.018-0.496 0-0.575 0-0.244-0.216-0.722-0.384-0.216-0.18-0.089-0.634-0.073-0.673-0.359 0.028-0.141-0.259-0.429-0.36-0.479 0.094-0.246-0.487-0.575-0.697-0.575 0-0.053-0.111-0.029-0.144-0.096-0.214 0-0.263-0.288-0.505-0.288-0.279 0-0.56-0.191-0.817-0.191-0.086-0.171-0.485-0.104-0.577-0.288-0.209 0-0.291-0.396-0.297-0.542-0.009-0.18-0.152-0.802-0.402-0.802zM26.248 6.484c-0.002 0.006 0.002 0.002-0.008 0.022 0.015 0 0.033 0.017 0.050 0.024-0.015-0.015-0.028-0.030-0.042-0.046zM26.549 6.815c0.035 0.068 0.061 0.131 0.053 0.17 0.035 0.001 0.052-0.018 0.080-0.025-0.043-0.049-0.090-0.095-0.133-0.145zM27.418 11.371c0.016-0.432-0.36-0.36-0.479-0.6-0.124 0-0.169-0.096-0.337-0.096-0.109-0.037-0.195-0.011-0.258 0.078-0.257 0.098-0.102-0.125-0.295-0.125 0.009-0.247-0.089-0.315-0.361-0.288-0.156 0.352-0.396 0.563-0.36 0.959 0.115 0.026 0.095 0.052 0.072 0.167 0.153 0.008 1.081-0.048 1.081-0.144 0.032 0 0.193 0.331 0.193 0.048 0.129 0 0.197 0.303 0.505 0.215 0 0.062 0.514-0.214 0.239-0.214zM27.467 16.474c0.018-0.088-0.044-0.127-0.096-0.216 0.137 0-0.433-1.057-0.433-1.222-0.087-0.043-0.198-0.345-0.218-0.455-0.117-0.078-0.238-0.334-0.288-0.479-0.119-0.079-0.409-0.433-0.456-0.599 0.172 0.019 0.432 0.054 0.432-0.168-0.116 0-0.133-0.143-0.023-0.143-0.036-0.147 0.078-0.253 0.103-0.368 0.030-0.139 0.089-0.353 0.089-0.519-0.165 0-0.205 0.028-0.336 0.072 0 0.097-0.293-0.024-0.336-0.024-0.063-0.126-0.52 0.164-0.648-0.096-0.207-0.187-0.151-0.331-0.218-0.595-0.034-0.134-0.217-0.142-0.328-0.164-0.313-0.061-0.087 0.373-0.104 0.472 0.192 0-0.121 0.238-0.121 0.359-0.324-0.070-0.216-0.431-0.407-0.527-0.057-0.096-0.012-0.168-0.145-0.168 0-0.128 0.068-0.36-0.072-0.407 0-0.062-0.272-0.087-0.312-0.168-0.172 0-0.572-0.65-0.695-0.431-0.077 0.14 0.065 0.174 0.094 0.288 0.249-0.049 0.225 0.41 0.529 0.359 0 0.064 0.008 0.129 0.023 0.192 0.225-0.053 0.199 0.167 0.312 0.167-0.082 0.109-0.342-0.174-0.271 0.064 0.041 0.138 0.018 0.256-0.161 0.391 0-0.149-0.012-0.551-0.168-0.551-0.106-0.212-0.421-0.161-0.554-0.359-0.108 0-0.15-0.336-0.336-0.359-0.035 0.049-0.166 0.096-0.217 0.096-0.101 0.203-0.672 0.021-0.672 0.048-0.009 0.002-0.32 0.762-0.338 0.862-0.035 0.215-0.208 0.219-0.26 0.423-0.026 0.102-0.653 0.054-0.653 0.129-0.271-0.090-0.505-0.28-0.505-0.575-0.022 0 0.051-0.753 0.097-0.863 0.055 0.015 0.066 0.034 0.097 0.096 0.166-0.062 0.553 0.041 0.553-0.144 0.161 0.004 0.209 0.068 0.144 0.192 0.15 0.028 0.409 0.066 0.409-0.144-0.088 0-0.097-0.008-0.097-0.096 0.288-0.299-0.216-0.569-0.216-0.718-0.102-0.034-0.31-0.255-0.162-0.172 0.125 0.069 0.582 0.212 0.402-0.092 0.012-0.004 0.020-0.012 0.023-0.023 0.051 0.036 0.266 0.257 0.266 0.048 0.059 0 0.287-0.144 0.096-0.144 0.018-0.108 0.014-0.198 0.023-0.264 0.305 0.164 0.135-0.112 0.289-0.215 0 0.199 0.164-0.096 0.264-0.096 0.119-0.177 0.391-0.040 0.457-0.24-0.147-0.048-0.12-0.416-0.12-0.55 0.177 0.029 0.374-0.239 0.401-0.055 0.010 0.071 0.019 0.267 0.055 0.294 0.263 0.138 0.193-0.079 0.193-0.215-0.088 0-0.205-0.308-0.217-0.456-0.072 0.010-0.188 0.040-0.217 0.095-0.262 0-0.44-0.095-0.648-0.095-0.016-0.032-0.266-0.312-0.24-0.312-0.146-0.251 0.146-0.178 0.192-0.19 0-0.238 0.991-0.196 1.034-0.576-0.326 0 0.336-0.552 0.336-0.55 0.221-0.189 0.338-0.352 0.613-0.373 0.116-0.008 1.406-0.364 1.406-0.203 0.052 0.002 0.224 0.004 0.402 0.010-2.497-2.322-5.834-3.752-9.513-3.752-3.563 0-6.806 1.342-9.277 3.535 0.022 0.050 0.039 0.098 0.038 0.132 0.131-0.009 0.319-0.093 0.361 0.073-0.065-0.001-0.13-0.009-0.192-0.025 0.046 0.371-0.162 0.144-0.336 0.144 0-0.009-0.077-0.040-0.159-0.062-0.053 0.050-0.109 0.097-0.162 0.147 0.006 0.016-0.003 0.017 0.007 0.035 0.056 0 0.027 0.087 0.187 0.14 0.185 0.063 0.388 0.098 0.583 0.129 0.158 0.025 0.249-0.029 0.384-0.029 0-0.020 0.33-0.167 0.097-0.167 0.032-0.132-0.027-0.165-0.169-0.167 0.012-0.14 0.345-0.048 0.481-0.048 0.104-0.175 0.003-0.154 0.095-0.313 0.11-0.195 0.241-0.026 0.313-0.213 0.109 0.040 0.206 0.099 0.241 0.237 0.087 0.072 0.529 0.724 0.529 0.263 0.158 0.053 0.237 0.349 0.24 0.504 0.287-0.042 0.312-0.257 0.312-0.48 0.066 0-0.024-0.107-0.024-0.144 0.107-0.039 0.241 0.102 0.241-0.047 0.046 0 0.048 0.046 0.048 0.096 0.149 0.029 0.245-0.017 0.336 0.015 0.063 0.022 0.031 0.349 0.002 0.464-0.036 0.146-0.315 0.148-0.315 0.216-0.316 0.236 0.373 0.359 0.481 0.503-0.065 0-0.312-0.032-0.312-0.047-0.156 0-0.534 0.165-0.673 0.047 0.194 0 0.259-0.233 0.289-0.455-0.179-0.067-0.39 0.043-0.44 0.221-0.084 0.294-0.279-0.012-0.377 0.186-0.038 0.012-0.385 0.173-0.385 0.119-0.39 0.055-0.288 0.386-0.288 0.743 0.155 0.093 0.47 0.358 0.456 0.503 0.35 0.062 0.478 0.099 0.793 0.144 0.026 0.051 0.13 0.099 0.193 0.119 0 0.206 0.187 0.169 0.36 0.169 0-0.263 0.306 0.219 0.336 0.311-0.042 0 0.072 0.269 0.096 0.36-0.048-0.017-0.063 0-0.048 0.048 0.152 0.056 0.393 0.040 0.433-0.12-0.146 0-0.097-0.167-0.097-0.264-0.15-0.1-0.127-0.293 0.024-0.335 0 0.136 0.495-0.085 0.216-0.191 0.068-0.153 0.114-0.388 0.003-0.521-0.071-0.084-0.16 0-0.195-0.126 0.189-0.047 0.050-0.407 0.048-0.575 0.060-0.023 0.216 0.038 0.216 0 0.185 0 0.493 0.234 0.601-0.049 0.309 0.141 0.063 0.275 0.385 0.168 0 0.076 0.363 0.431 0.409 0.431 0 0.017-0.009 0.12 0.071 0.12 0 0.077-0.048-0.044-0.048 0.095 0.045 0.005 0.289 0.049 0.289-0.047 0.155 0 0.264-0.19 0.264-0.335 0.097-0.063 0.267 0.527 0.384 0.527 0.086 0.134 0.361 0.329 0.361 0.455 0.058 0.059 0.119 0.043 0.119 0.216 0.073 0 0.217-0.287 0.217-0.024 0.068 0 0.266 0.146 0.289 0.263-0.173 0-0.009 0.168-0.098 0.168 0 0.166-0.371 0.034-0.455 0.024-0.115 0.515-0.809 0.145-1.229 0.278-0.221 0.070-0.648 0.557-0.671 0.8 0.268 0.003 0.386-0.232 0.625-0.312 0.195 0 0.233-0.118 0.409-0.167 0 0.049 0.048 0.023 0.048 0.072-0.342 0-0.134 0.221-0.034 0.382 0.062 0.1 0.133 0.148 0.212 0.179-0.033 0.058-0.060 0.116-0.081 0.181 0 0.001-0.001 0-0.001 0.001-0.065 0.022-0.192 0.069-0.217 0.12-0.387 0.043-0.196 0.017-0.17-0.076 0.014 0.033 0.153 0.003 0.147 0.004-0.023-0.116-0.058-0.1-0.024-0.167-0.21 0-0.312 0.096-0.481 0.096-0.028 0.057-0.175 0.192-0.24 0.192-0.049 0.148-0.16 0.417-0.289 0.503 0-0.039-0.342 0.215-0.312 0.215-0.076 0.123-0.159 0.119-0.193 0.311-0.023 0.012-0.12 0.333-0.12 0.383-0.149 0.099-0.204 0.503-0.457 0.503-0.155 0.308-0.433 0.267-0.433 0.671 0.094 0.096 0.13 0.521 0.159 0.657 0.036 0.169 0.092 0.345-0.134 0.349-0.016-0.025-0.174-0.264-0.145-0.264 0-0.099-0.121-0.416-0.192-0.515-0.095-0.133-0.271 0.021-0.409-0.037-0.059-0.118-0.458-0.144-0.6-0.144 0.023 0.089 0.088 0.117 0.096 0.216-0.118 0.048-0.186 0.102-0.308 0.085-0.209-0.029-0.184-0.192-0.414-0.169-0.368 0.037-0.625 0.342-0.625 0.707-0.041 0-0.041 0.719 0 0.719 0 0.203 0.168 0.35 0.168 0.503 0.163 0 0.346 0.359 0.505 0.359 0.018 0.127-0.080 0.147 0.192 0.145 0-0.014 0.148-0.093 0.168-0.192-0.188-0.046-0.001-0.288 0.12-0.335 0 0.171 0.24-0.057 0.24-0.072 0.027-0.011 0.265-0.096 0.265-0.096 0-0.194 0.181 0.019 0.048 0.096-0.13 0-0.12 0.216-0.192 0.216-0.031 0.154-0.092 0.288-0.128 0.438-0.046 0.185 0.104 0.204 0.056 0.377 0.191 0.036 0.384 0.001 0.577 0 0.001-0.034-0.006-0.067-0.024-0.096 0.279 0 0.024 0.527 0.193 0.527 0 0.199 0.096 0.354 0.096 0.479 0.13 0.086 0.208 0.201 0.168 0.359 0.16 0.021 0.504 0.062 0.504-0.144 0.243 0 0.26 0.165 0.242 0.335 0.484 0 0.181-0.479 0.383-0.479 0.019-0.079 0.052-0.093 0.099-0.041 0.099 0.053 0.174-0.099 0.253-0.147 0.025-0.017 0.113-0.068 0.129-0.068 0.068 0.041 0.074 0.029 0.104 0.075 0.132-0.001 0.265-0.075 0.378-0.153 0.173 0.021 0.117 0.393 0.441 0.416 0.13 0.009 0.431 0.045 0.543-0.032 0.028-0.019 0.131 0.065 0.142 0.101 0.108 0 0.1 0.094 0.146 0.092 0.011 0.021 0.027 0.029 0.049 0.023 0.014 0.041 0.1 0.053 0.145 0.167 0 0.104 0.216 0.122 0.216 0.191 0.155 0.078-0.053 0.099 0.185 0.171 0.131 0.041 0.252 0.107 0.393 0.117 0.045-0.171 0.191 0.023 0.265 0.023 0.038 0.078 0.058 0.019 0.095 0.096 0.223 0.186 0.076 0.114 0.168 0.312 0.107 0.070 0.141 0.314 0.17 0.455-0.086 0-0.025 0.329-0.025 0.36-0.104 0 0.266 0.197 0.266-0.049 0.152 0.025 0.252 0.191 0.36 0.191-0.063 0.145 0.168 0.254 0.168 0.025 0.228 0.023 0.167 0.363 0.145 0.479 0.169 0 0.218-0.094 0.362-0.112 0.156-0.099 0.33-0.171 0.527-0.171 0.553 0 1 0.447 1 1 0 0.498-0.371 0.893-0.848 0.969-0.064 0.073-0.122 0.136-0.126 0.136 0 0.048-0.011 0.526-0.025 0.526 0 0.096-0.073 0.623-0.144 0.623 0 0.271-0.177 0.32-0.24 0.575-0.146 0.108-0.541 0.288-0.602 0.407-0.113 0-0.197 0.096-0.312 0.096-0.016 0.033-0.261 0.264-0.217 0.264-0.018 0.17 0.013 0.57-0.079 0.682-0.062 0.074-0.151 0.066-0.112 0.182-0.135 0 0.008 0.096-0.205 0.096-0.134 0-0.373 0.191-0.38 0.353-0.009 0.198-0.062 0.341-0.232 0.462 0 0.068-0.312 0.088-0.312 0.264 0.029 0 0 0.326 0 0.359-0.093-0.003-0.321 0.090-0.36 0.167-0.314 0-0.276 0.032-0.48 0.168 0 0.042-0.029 0.191-0.072 0.191 0 0.243-0.173 0.022-0.313 0.145 0.055 0 0.125 0.239 0.096 0.239 0 0.211-0.131 0.229-0.264 0.384-0.063 0.042-0.123 0.216-0.168 0.216 0 0.142-0.071 0.271-0.071 0.407 0.030 0 0.002 0.061 0.023 0.118 0.067-0.019 0.069-0.095 0.096-0.095 0-0.12 0.191 0.071 0.072 0.071-0.099 0.15-0.206 0.153-0.265 0.36-0.060 0-0.112 0.058-0.156 0.126 1.178 0.321 2.414 0.509 3.696 0.509 4.924 0 9.246-2.548 11.742-6.393 0.015-0.354 0.070-0.692 0.109-0.809 0.098 0.072 0.171 0.207 0.24 0-0.173-0.034-0.131-0.094-0.072-0.239 0.066 0.040 0.199 0.089 0.307 0.082 0.033-0.062 0.059-0.128 0.092-0.19-0.098-0.076 0.037-0.273 0.084-0.177 0.025-0.048 0.047-0.098 0.070-0.146-0.011-0.003-0.008 0.004-0.024-0.001 0-0.087 0.016-0.076 0.073-0.12 0.001 0.009 0 0.009 0.002 0.017 0.873-1.827 1.377-3.864 1.377-6.024 0-0.071-0.010-0.139-0.011-0.21-0.026 0.098-0.075 0.204-0.144 0.228 0 0.063-0.715 0.374-0.672 0.503-0.126 0-0.568 0.126-0.649 0.287-0.089 0-0.448 0.127-0.481 0.192-0.446 0.001-0.361-0.526-0.576-0.526zM29.5 11h-0.531c-0.004-0.005-0.008-0.006-0.012-0.013-0.027 0-0.14-0.254-0.096-0.312 0.043 0 0.063 0.004 0.086 0.006-0.045-0.11-0.094-0.218-0.143-0.327-0.108 0.074-0.203 0.168-0.352 0.177 0 0.041-0.213 0.455 0 0.455 0 0.008 0.004 0.014 0.006 0.021-0.255 0.024-0.458 0.232-0.458 0.493 0 0.276 0.224 0.5 0.5 0.5h0.197c0.012 0.091 0.061 0.17 0.236 0.209 0.055 0.231 0.467 0.313 0.529 0.071-0.174 0-0.117-0.167-0.102-0.28h0.14c0.275 0 0.5-0.224 0.5-0.5s-0.225-0.5-0.5-0.5zM28.043 17.502c0.035 0.002 0.266-0.004 0.266-0.045 0.209 0 0.492-0.029 0.697-0.097 0 0.31-0.261 0.483-0.217 0.791-0.173 0-0.097 0.178-0.097 0.239-0.112 0.069-0.129 0.195-0.264 0.264 0 0.139-0.312 0.369-0.404 0.488-0.104 0.133-0.417 0.364-0.458 0.533 0.011-0.040-0.572 0.607-0.436 0.607 0 0.121-0.164 1.078 0.048 1.078 0 0.084 0.181 0.887 0.071 0.887 0 0.258-0.168 0.416-0.168 0.622-0.082 0.056-0.199 0.087-0.24 0.169-0.147 0-0.218 0.312-0.288 0.312 0 0.333-0.097 0.58-0.097 0.958 0.027 0-0.192 0.539-0.192 0.574-0.177 0.119-0.625 0.546-0.625 0.768 0 0-0.312 0.438-0.36 0.503-0.094 0-0.818 0.136-0.818 0.192-0.154 0-0.552 0.121-0.648-0.024 0-0.152-0.083-0.345-0.096-0.552-0.074 0-0.086-0.311-0.168-0.311 0-0.066-0.459-0.983-0.385-0.983 0-0.095-0.082-0.407-0.096-0.407 0-0.33-0.241-0.605-0.241-0.91-0.071 0-0.218-0.67-0.144-0.67 0-0.352 0.123-0.582 0.174-0.973 0.057-0.429-0.027-0.69-0.102-0.993-0.041 0-0.179-0.229-0.193-0.287-0.193-0.128-0.264-0.382-0.264-0.622 0.126-0.144 0.176-0.685 0.145-0.863-0.243-0.115-0.34-0.072-0.602-0.072-0.155-0.311-1.196-0.119-1.491-0.119 0 0.17-0.725-0.033-0.793-0.168-0.177 0-0.528-0.376-0.528-0.551-0.194-0.129-0.504-0.771-0.504-0.982-0.168-0.084-0.117-0.408-0.025-0.408 0.023-0.090-0.059-0.374-0.098-0.509-0.029-0.101 0.098-0.21 0.098-0.33 0-0.334 0.008-0.488 0.195-0.845 0.059-0.112 0.134-0.217 0.189-0.357 0.1-0.251 0.13-0.012 0.265-0.236 0.129-0.064 0.204-0.278 0.337-0.383 0.058-0.077 0.060-0.109 0-0.168 0.026 0 0.168-0.369 0.168-0.454 0.188-0.261 0.055-0.142 0.24-0.12 0.068-0.074 0.181-0.264 0.288-0.264 0.047-0.093 0.165-0.144 0.265-0.144 0 0.144 0.392-0.047 0.433-0.047 0.067-0.135 0.499-0.288 0.601-0.288 0-0.164 0.852 0.046 0.986 0.024 0-0.024 0-0.048 0-0.072 0.182 0.043 0.514 0.773 0.48 0.935 0.14 0 0.27-0.023 0.361 0 0 0.155 0.292 0.193 0.425 0.2 0.185 0.009 0.728-0.019 0.728-0.272 0.143 0 0.27 0.1 0.242 0.263 0.162 0.018 1.125 0.037 1.057 0.239 0.141 0 0.177 0.241 0.312 0.241-0.027 0.166 0.168 0.599 0.312 0.599 0 0.144 0.090 0.409 0.217 0.502 0.068 0.206 0.293 0.64 0.504 0.767-0.090 0.17 0.137 0.31 0.193 0.479-0.013 0 0.049 0.251 0.119 0.288 0 0.17 0.358 0.863 0.554 0.863 0.013 0.084-0.184 0.122 0.072 0.141zM22.852 12.137c0.037-0.143 0.121-0.032 0.199-0.006 0.185 0.060 0.121-0.003 0.258-0.065 0 0.39-0.224 0.094-0.457 0.071zM22.346 11.418c0.098 0 0.125 0.44-0.144 0.359 0-0.109-0.069-0.311 0.073-0.311 0.041 0.17 0.071 0.101 0.071-0.048zM22.227 11.131c0.111 0.048 0.16 0.032 0.144-0.048 0.146 0.048-0.019 0.152-0.048 0.264-0.075-0.074-0.052-0.1-0.096-0.216zM19.654 8.998c-0.236-0.061 0.243-0.131 0.264-0.191-0.080 0-0.135-0.083-0.104-0.153 0.036-0.083 0.095 0.099 0.177 0.058 0.097-0.010 0.288-0.155 0.19 0.125-0.1 0.284-0.191 0.492-0.551 0.497-0.129-0.13-0.005-0.198 0.024-0.336zM20.544 8.016c0.194 0 0.024 0.144-0.019 0.144 0.033 0.013-0.006 0.129-0.006 0.167 0.18-0.002 0.183-0.112 0.312-0.144-0.027 0.161-0.207 0.192-0.031 0.33 0.093 0.073 0.188 0.159 0.151 0.27 0.229 0 0.263 0.22 0.216 0.479 0.127 0 0.121 0.006 0.121-0.121 0.123 0.034 0.114 0.145 0 0.145-0.114 0.225-0.413 0.215-0.625 0.215-0.002-0.174-0.035-0.185-0.196-0.136-0.22 0.067-0.048-0.175-0.044-0.295 0.024 0 0.499 0.022 0.216-0.072-0.015-0.258-0.073-0.335-0.312-0.335 0-0.176-0.062-0.163-0.091-0.356-0.041-0.285 0.223 0.020 0.308-0.291zM20.471 9.573c0 0.059-0.12 0.106-0.144 0.023 0.023 0.008 0.032 0 0.023-0.023 0.041 0 0.082 0 0.121 0zM18.5 7h-1c-0.276 0-0.5-0.224-0.5-0.5s0.224-0.5 0.5-0.5h1c0.276 0 0.5 0.224 0.5 0.5s-0.224 0.5-0.5 0.5zM12.674 15.85c0.056 0 0.121 0.022 0.121 0.072-0.073 0-0.167 0.069-0.121-0.072zM11.762 15.899c-0.040 0.076-0.364 0.063-0.409-0.025 0.12 0 0.213 0.049 0.336 0 0-0.066-0.055-0.119-0.096-0.191 0.131 0 0.278 0.1 0.457 0.096 0-0.111-0.049 0.024 0-0.12 0.075 0.019 0.256 0.191 0.264 0.263-0.263-0.028-0.275-0.023-0.552-0.023zM10.704 15.324c-0.123 0-0.36-0.107-0.433-0.216 0.119 0.005 0.237 0.054 0.312-0.072 0.305 0.031 0.332 0.241 0.577 0.241 0.046 0.081 0.308 0.267 0.055 0.291-0.191 0.018-0.431-0.086-0.511-0.244zM10.896 15.995c-0.089 0-0.236 0.039-0.168-0.145 0.118 0.016 0.174 0.065 0.168 0.145zM11.064 15.971c-0.048 0.008-0.096 0.016-0.144 0.024 0.014-0.111 0.119-0.235 0.144-0.024zM11.953 17.024c-0.019 0.067-0.016 0.071-0.095 0.071 0.008-0.031 0.015-0.062 0.023-0.095 0.025 0.008 0.048 0.016 0.072 0.024zM9.79 15.036c0.023 0.008 0.048 0.017 0.072 0.024 0.031 0.119 0.096 0.060 0.168 0.024 0 0.139-0.322 0.179-0.24-0.048z"></path>
</symbol>
<symbol id="icon-folder" viewBox="0 0 32 32">
<title>folder</title>
<path d="M31 12h-30c-0.552 0-1 0.448-1 1l1 16c0 0.553 0.448 1 1 1h28c0.553 0 1-0.447 1-1l1-16c0-0.552-0.447-1-1-1zM31 6h-11l-2-3c0-0.552-0.447-1-1-1h-12c-0.552 0-1 0.448-1 1v3h-3c-0.552 0-1 0.448-1 1v2c0 0.552 0.448 1 1 1h30c0.553 0 1-0.448 1-1v-2c0-0.552-0.447-1-1-1z"></path>
</symbol>
<symbol id="icon-file" viewBox="0 0 32 32">
<title>file</title>
<path d="M27 32h-22c-0.553 0-1-0.447-1-1v-21h9c0.553 0 1-0.448 1-1v-9h13c0.553 0 1 0.448 1 1v30c0 0.553-0.447 1-1 1zM12 0v8h-8l8-8z"></path>
</symbol>
<symbol id="icon-thumbs-up1" viewBox="0 0 32 32">
<title>thumbs-up1</title>
<path d="M7.647 13.069c0.115-0.544-0.613-1.015-1.396-1.034-0.938-0.023-1.661-0.031-2.312-0.034-0.535-0.002-0.936 0.447-0.939 0.999v15c0.003 0.552 0.403 1.001 0.942 0.999 0.655-0.003 1.393-0.011 2.377-0.034 0.822-0.020 1.594-0.49 1.462-1.034-1.022-4.935-1.030-9.927-0.134-14.862zM27 16h-9v-2h9c1.104 0 2-0.896 2-2s-0.896-2-2-2h-8.75l0.125-1.502 0.625-4.998c0-1.933-1.566-3.5-3.5-3.5-1.933 0-3.5-0.433-3.5 1.5l-0.572 3.5-0.427 2.991-1.001 6.509c0 0.103 0.015 0.184 0.035 0.258l-0.035 0.242-0.914 0.601c0 0-0.086 0.256-0.086 0.399v11c0 0.553 0.448 1 1 1h0.101c0.463 2.282 2.48 4 4.899 4h8c2.419 0 4.436-1.718 4.899-4h-7.899c-1.104 0-2-0.896-2-2h8c1.104 0 2-0.896 2-2s-0.896-2-2-2h-8v-2h9c1.104 0 2-0.896 2-2s-0.896-2-2-2z"></path>
</symbol>
<symbol id="icon-window" viewBox="0 0 32 32">
<title>window</title>
<path d="M4 8h2v-2h-2v2zM28 2h-24c-2.209 0-4 1.791-4 4v24h32v-24c0-2.209-1.791-4-4-4zM30 28h-28v-16h28v16zM30 10h-28v-4c0-1.104 0.896-2 2-2h24c1.104 0 2 0.896 2 2v4zM27 6h-14c-0.552 0-1 0.448-1 1s0.448 1 1 1h14c0.553 0 1-0.448 1-1s-0.447-1-1-1zM8 8h2v-2h-2v2z"></path>
</symbol>
<symbol id="icon-trophy" viewBox="0 0 32 32">
<title>trophy</title>
<path d="M24.5 0h-17c-4.143 0-7.5 3.357-7.5 7.5s3.357 7.5 7.5 7.5h1.364c1.596 1.626 3.74 2.71 6.136 2.948v10.052h-3l-4 4h16l-4-4h-3v-10.052c2.396-0.238 4.54-1.322 6.136-2.948h1.364c4.143 0 7.5-3.357 7.5-7.5s-3.357-7.5-7.5-7.5zM2 7.5c0-2.514 1.696-4.61 4-5.267v5.767c0 1.816 0.492 3.516 1.339 4.983-2.961-0.087-5.339-2.501-5.339-5.483zM24.661 12.983c0.847-1.467 1.339-3.167 1.339-4.983v-5.767c2.304 0.656 4 2.753 4 5.267 0 2.982-2.378 5.396-5.339 5.483z"></path>
</symbol>
<symbol id="icon-home" viewBox="0 0 32 32">
<title>home</title>
<path d="M32 18.451l-16-12.42-16 12.42v-5.064l16-12.42 16 12.42zM28 18v12h-8v-8h-8v8h-8v-12l12-9z"></path>
</symbol>
<symbol id="icon-home2" viewBox="0 0 32 32">
<title>home2</title>
<path d="M16 1l-16 16 3 3 3-3v13h8v-6h4v6h8v-13l3 3 3-3-16-16zM16 14c-1.105 0-2-0.895-2-2s0.895-2 2-2c1.105 0 2 0.895 2 2s-0.895 2-2 2z"></path>
</symbol>
<symbol id="icon-home3" viewBox="0 0 32 32">
<title>home3</title>
<path d="M32 19l-6-6v-9h-4v5l-6-6-16 16v1h4v10h10v-6h4v6h10v-10h4z"></path>
</symbol>
<symbol id="icon-book" viewBox="0 0 32 32">
<title>book</title>
<path d="M28 4v26h-21c-1.657 0-3-1.343-3-3s1.343-3 3-3h19v-24h-20c-2.2 0-4 1.8-4 4v24c0 2.2 1.8 4 4 4h24v-28h-2z"></path>
<path d="M7.002 26v0c-0.001 0-0.001 0-0.002 0-0.552 0-1 0.448-1 1s0.448 1 1 1c0.001 0 0.001-0 0.002-0v0h18.997v-2h-18.997z"></path>
</symbol>
<symbol id="icon-stack" viewBox="0 0 32 32">
<title>stack</title>
<path d="M32 10l-16-8-16 8 16 8 16-8zM16 4.655l10.689 5.345-10.689 5.345-10.689-5.345 10.689-5.345zM28.795 14.398l3.205 1.602-16 8-16-8 3.205-1.602 12.795 6.398zM28.795 20.398l3.205 1.602-16 8-16-8 3.205-1.602 12.795 6.398z"></path>
</symbol>
<symbol id="icon-folder-open" viewBox="0 0 32 32">
<title>folder-open</title>
<path d="M26 30l6-16h-26l-6 16zM4 12l-4 18v-26h9l4 4h13v4z"></path>
</symbol>
<symbol id="icon-phone" viewBox="0 0 32 32">
<title>phone</title>
<path d="M22 20c-2 2-2 4-4 4s-4-2-6-4-4-4-4-6 2-2 4-4-4-8-6-8-6 6-6 6c0 4 4.109 12.109 8 16s12 8 16 8c0 0 6-4 6-6s-6-8-8-6z"></path>
</symbol>
<symbol id="icon-phone-hang-up" viewBox="0 0 32 32">
<title>phone-hang-up</title>
<path d="M31.793 18c0.25 1.734 0.413 4.106-0.364 5.014-1.286 1.501-9.428 1.501-9.428-1.501 0-1.512 1.339-2.504 0.053-4.006-1.265-1.477-3.532-1.501-6.054-1.501s-4.789 0.024-6.054 1.501c-1.286 1.501 0.054 2.493 0.054 4.006 0 3.003-8.143 3.003-9.429 1.501-0.777-0.908-0.615-3.28-0.364-5.014 0.193-1.157 0.679-2.406 2.236-4 0-0 0-0 0-0 2.336-2.179 5.87-3.961 13.432-3.999v-0.001c0.042 0 0.083 0 0.125 0s0.083-0 0.125-0v0.001c7.562 0.038 11.096 1.82 13.432 3.999 0 0 0 0 0 0 1.557 1.594 2.043 2.842 2.236 4z"></path>
</symbol>
<symbol id="icon-address-book" viewBox="0 0 32 32">
<title>address-book</title>
<path d="M6 0v32h24v-32h-24zM18 8.010c2.203 0 3.99 1.786 3.99 3.99s-1.786 3.99-3.99 3.99-3.99-1.786-3.99-3.99 1.786-3.99 3.99-3.99v0zM24 24h-12v-2c0-2.209 1.791-4 4-4v0h4c2.209 0 4 1.791 4 4v2z"></path>
<path d="M2 2h3v6h-3v-6z"></path>
<path d="M2 10h3v6h-3v-6z"></path>
<path d="M2 18h3v6h-3v-6z"></path>
<path d="M2 26h3v6h-3v-6z"></path>
</symbol>
<symbol id="icon-envelop" viewBox="0 0 32 32">
<title>envelop</title>
<path d="M29 4h-26c-1.65 0-3 1.35-3 3v20c0 1.65 1.35 3 3 3h26c1.65 0 3-1.35 3-3v-20c0-1.65-1.35-3-3-3zM12.461 17.199l-8.461 6.59v-15.676l8.461 9.086zM5.512 8h20.976l-10.488 7.875-10.488-7.875zM12.79 17.553l3.21 3.447 3.21-3.447 6.58 8.447h-19.579l6.58-8.447zM19.539 17.199l8.461-9.086v15.676l-8.461-6.59z"></path>
</symbol>
<symbol id="icon-location" viewBox="0 0 32 32">
<title>location</title>
<path d="M16 0c-5.523 0-10 4.477-10 10 0 10 10 22 10 22s10-12 10-22c0-5.523-4.477-10-10-10zM16 16c-3.314 0-6-2.686-6-6s2.686-6 6-6 6 2.686 6 6-2.686 6-6 6z"></path>
</symbol>
<symbol id="icon-location2" viewBox="0 0 32 32">
<title>location2</title>
<path d="M16 0c-5.523 0-10 4.477-10 10 0 10 10 22 10 22s10-12 10-22c0-5.523-4.477-10-10-10zM16 16.125c-3.383 0-6.125-2.742-6.125-6.125s2.742-6.125 6.125-6.125 6.125 2.742 6.125 6.125-2.742 6.125-6.125 6.125zM12.125 10c0-2.14 1.735-3.875 3.875-3.875s3.875 1.735 3.875 3.875c0 2.14-1.735 3.875-3.875 3.875s-3.875-1.735-3.875-3.875z"></path>
</symbol>
<symbol id="icon-map" viewBox="0 0 32 32">
<title>map</title>
<path d="M0 6l10-4v24l-10 4z"></path>
<path d="M12 1l10 6v23l-10-5z"></path>
<path d="M24 7l8-6v24l-8 6z"></path>
</symbol>
<symbol id="icon-map2" viewBox="0 0 32 32">
<title>map2</title>
<path d="M21 6l-10-4-11 4v24l11-4 10 4 11-4v-24l-11 4zM12 4.554l8 3.2v19.692l-8-3.2v-19.692zM2 7.401l8-2.909v19.744l-8 2.909v-19.744zM30 24.599l-8 2.909v-19.744l8-2.909v19.744z"></path>
</symbol>
<symbol id="icon-calendar" viewBox="0 0 32 32">
<title>calendar</title>
<path d="M10 12h4v4h-4zM16 12h4v4h-4zM22 12h4v4h-4zM4 24h4v4h-4zM10 24h4v4h-4zM16 24h4v4h-4zM10 18h4v4h-4zM16 18h4v4h-4zM22 18h4v4h-4zM4 18h4v4h-4zM26 0v2h-4v-2h-14v2h-4v-2h-4v32h30v-32h-4zM28 30h-26v-22h26v22z"></path>
</symbol>
<symbol id="icon-display" viewBox="0 0 32 32">
<title>display</title>
<path d="M0 2v20h32v-20h-32zM30 20h-28v-16h28v16zM21 24h-10l-1 4-2 2h16l-2-2z"></path>
</symbol>
<symbol id="icon-bubble" viewBox="0 0 32 32">
<title>bubble</title>
<path d="M16 2c8.837 0 16 5.82 16 13s-7.163 13-16 13c-0.849 0-1.682-0.054-2.495-0.158-3.437 3.437-7.539 4.053-11.505 4.144v-0.841c2.142-1.049 4-2.961 4-5.145 0-0.305-0.024-0.604-0.068-0.897-3.619-2.383-5.932-6.024-5.932-10.103 0-7.18 7.163-13 16-13z"></path>
</symbol>
<symbol id="icon-bubbles" viewBox="0 0 36 32">
<title>bubbles</title>
<path d="M34 28.161c0 1.422 0.813 2.653 2 3.256v0.498c-0.332 0.045-0.671 0.070-1.016 0.070-2.125 0-4.042-0.892-5.398-2.321-0.819 0.218-1.688 0.336-2.587 0.336-4.971 0-9-3.582-9-8s4.029-8 9-8c4.971 0 9 3.582 9 8 0 1.73-0.618 3.331-1.667 4.64-0.213 0.463-0.333 0.979-0.333 1.522zM16 0c8.702 0 15.781 5.644 15.995 12.672-1.537-0.685-3.237-1.047-4.995-1.047-2.986 0-5.807 1.045-7.942 2.943-2.214 1.968-3.433 4.607-3.433 7.432 0 1.396 0.298 2.747 0.867 3.993-0.163 0.004-0.327 0.007-0.492 0.007-0.849 0-1.682-0.054-2.495-0.158-3.437 3.437-7.539 4.053-11.505 4.144v-0.841c2.142-1.049 4-2.961 4-5.145 0-0.305-0.024-0.604-0.068-0.897-3.619-2.383-5.932-6.024-5.932-10.103 0-7.18 7.163-13 16-13z"></path>
</symbol>
<symbol id="icon-bubbles2" viewBox="0 0 36 32">
<title>bubbles2</title>
<path d="M15 0v0c8.284 0 15 5.435 15 12.139s-6.716 12.139-15 12.139c-0.796 0-1.576-0.051-2.339-0.147-3.222 3.209-6.943 3.785-10.661 3.869v-0.785c2.008-0.98 3.625-2.765 3.625-4.804 0-0.285-0.022-0.564-0.063-0.837-3.392-2.225-5.562-5.625-5.562-9.434 0-6.704 6.716-12.139 15-12.139zM31.125 27.209c0 1.748 1.135 3.278 2.875 4.118v0.673c-3.223-0.072-6.181-0.566-8.973-3.316-0.661 0.083-1.337 0.126-2.027 0.126-2.983 0-5.732-0.805-7.925-2.157 4.521-0.016 8.789-1.464 12.026-4.084 1.631-1.32 2.919-2.87 3.825-4.605 0.961-1.84 1.449-3.799 1.449-5.825 0-0.326-0.014-0.651-0.039-0.974 2.268 1.873 3.664 4.426 3.664 7.24 0 3.265-1.88 6.179-4.82 8.086-0.036 0.234-0.055 0.474-0.055 0.718z"></path>
</symbol>
<symbol id="icon-bubble2" viewBox="0 0 32 32">
<title>bubble2</title>
<path d="M16 6c-1.717 0-3.375 0.271-4.928 0.804-1.46 0.502-2.76 1.211-3.863 2.108-2.069 1.681-3.209 3.843-3.209 6.088 0 1.259 0.35 2.481 1.039 3.63 0.711 1.185 1.781 2.268 3.093 3.133 0.949 0.625 1.587 1.623 1.755 2.747 0.056 0.375 0.091 0.753 0.105 1.129 0.233-0.194 0.461-0.401 0.684-0.624 0.755-0.755 1.774-1.172 2.828-1.172 0.168 0 0.336 0.011 0.505 0.032 0.655 0.083 1.325 0.126 1.99 0.126 1.717 0 3.375-0.271 4.928-0.804 1.46-0.502 2.76-1.211 3.863-2.108 2.069-1.681 3.209-3.843 3.209-6.088s-1.14-4.407-3.209-6.088c-1.104-0.897-2.404-1.606-3.863-2.108-1.553-0.534-3.211-0.804-4.928-0.804zM16 2v0c8.837 0 16 5.82 16 13s-7.163 13-16 13c-0.849 0-1.682-0.054-2.495-0.158-3.437 3.437-7.539 4.053-11.505 4.144v-0.841c2.142-1.049 4-2.961 4-5.145 0-0.305-0.024-0.604-0.068-0.897-3.619-2.383-5.932-6.024-5.932-10.103 0-7.18 7.163-13 16-13z"></path>
</symbol>
<symbol id="icon-bubbles3" viewBox="0 0 36 32">
<title>bubbles3</title>
<path d="M34 28.161c0 1.422 0.813 2.653 2 3.256v0.498c-0.332 0.045-0.671 0.070-1.016 0.070-2.125 0-4.042-0.892-5.398-2.321-0.819 0.218-1.688 0.336-2.587 0.336-4.971 0-9-3.582-9-8s4.029-8 9-8c4.971 0 9 3.582 9 8 0 1.73-0.618 3.331-1.667 4.64-0.213 0.463-0.333 0.979-0.333 1.522zM7.209 6.912c-2.069 1.681-3.209 3.843-3.209 6.088 0 1.259 0.35 2.481 1.039 3.63 0.711 1.185 1.781 2.268 3.093 3.133 0.949 0.625 1.587 1.623 1.755 2.747 0.056 0.375 0.091 0.753 0.105 1.129 0.233-0.194 0.461-0.401 0.684-0.624 0.755-0.755 1.774-1.172 2.828-1.172 0.168 0 0.336 0.011 0.505 0.032 0.655 0.083 1.323 0.125 1.987 0.126v4c-0.848-0-1.68-0.054-2.492-0.158-3.437 3.437-7.539 4.053-11.505 4.144v-0.841c2.142-1.049 4-2.961 4-5.145 0-0.305-0.024-0.604-0.068-0.897-3.619-2.383-5.932-6.024-5.932-10.103 0-7.18 7.163-13 16-13 8.702 0 15.781 5.644 15.995 12.672-1.284-0.572-2.683-0.919-4.133-1.018-0.36-1.752-1.419-3.401-3.070-4.742-1.104-0.897-2.404-1.606-3.863-2.108-1.553-0.534-3.211-0.804-4.928-0.804s-3.375 0.271-4.928 0.804c-1.46 0.502-2.76 1.211-3.863 2.108z"></path>
</symbol>
<symbol id="icon-bubbles4" viewBox="0 0 36 32">
<title>bubbles4</title>
<path d="M15 4c-1.583 0-3.112 0.248-4.543 0.738-1.341 0.459-2.535 1.107-3.547 1.926-1.876 1.518-2.91 3.463-2.91 5.474 0 1.125 0.315 2.217 0.935 3.247 0.646 1.073 1.622 2.056 2.821 2.842 0.951 0.624 1.592 1.623 1.761 2.748 0.028 0.187 0.051 0.375 0.068 0.564 0.085-0.079 0.169-0.16 0.254-0.244 0.754-0.751 1.771-1.166 2.823-1.166 0.167 0 0.335 0.011 0.503 0.032 0.605 0.077 1.223 0.116 1.836 0.116 1.583 0 3.112-0.248 4.543-0.738 1.341-0.459 2.535-1.107 3.547-1.926 1.876-1.518 2.91-3.463 2.91-5.474s-1.033-3.956-2.91-5.474c-1.012-0.819-2.206-1.467-3.547-1.926-1.431-0.49-2.96-0.738-4.543-0.738zM15 0v0c8.284 0 15 5.435 15 12.139s-6.716 12.139-15 12.139c-0.796 0-1.576-0.051-2.339-0.147-3.222 3.209-6.943 3.785-10.661 3.869v-0.785c2.008-0.98 3.625-2.765 3.625-4.804 0-0.285-0.022-0.564-0.063-0.837-3.392-2.225-5.562-5.625-5.562-9.434 0-6.704 6.716-12.139 15-12.139zM31.125 27.209c0 1.748 1.135 3.278 2.875 4.118v0.673c-3.223-0.072-6.181-0.566-8.973-3.316-0.661 0.083-1.337 0.126-2.027 0.126-2.983 0-5.732-0.805-7.925-2.157 4.521-0.016 8.789-1.464 12.026-4.084 1.631-1.32 2.919-2.87 3.825-4.605 0.961-1.84 1.449-3.799 1.449-5.825 0-0.326-0.014-0.651-0.039-0.974 2.268 1.873 3.664 4.426 3.664 7.24 0 3.265-1.88 6.179-4.82 8.086-0.036 0.234-0.055 0.474-0.055 0.718z"></path>
</symbol>
<symbol id="icon-user1" viewBox="0 0 32 32">
<title>user1</title>
<path d="M18 22.082v-1.649c2.203-1.241 4-4.337 4-7.432 0-4.971 0-9-6-9s-6 4.029-6 9c0 3.096 1.797 6.191 4 7.432v1.649c-6.784 0.555-12 3.888-12 7.918h28c0-4.030-5.216-7.364-12-7.918z"></path>
</symbol>
<symbol id="icon-users" viewBox="0 0 36 32">
<title>users</title>
<path d="M24 24.082v-1.649c2.203-1.241 4-4.337 4-7.432 0-4.971 0-9-6-9s-6 4.029-6 9c0 3.096 1.797 6.191 4 7.432v1.649c-6.784 0.555-12 3.888-12 7.918h28c0-4.030-5.216-7.364-12-7.918z"></path>
<path d="M10.225 24.854c1.728-1.13 3.877-1.989 6.243-2.513-0.47-0.556-0.897-1.176-1.265-1.844-0.95-1.726-1.453-3.627-1.453-5.497 0-2.689 0-5.228 0.956-7.305 0.928-2.016 2.598-3.265 4.976-3.734-0.529-2.39-1.936-3.961-5.682-3.961-6 0-6 4.029-6 9 0 3.096 1.797 6.191 4 7.432v1.649c-6.784 0.555-12 3.888-12 7.918h8.719c0.454-0.403 0.956-0.787 1.506-1.146z"></path>
</symbol>
<symbol id="icon-user-tie" viewBox="0 0 32 32">
<title>user-tie</title>
<path d="M10 6c0-3.314 2.686-6 6-6s6 2.686 6 6c0 3.314-2.686 6-6 6s-6-2.686-6-6zM24.002 14h-1.107l-6.222 12.633 2.327-11.633-3-3-3 3 2.327 11.633-6.222-12.633h-1.107c-3.998 0-3.998 2.687-3.998 6v10h24v-10c0-3.313 0-6-3.998-6z"></path>
</symbol>
<symbol id="icon-wrench" viewBox="0 0 32 32">
<title>wrench</title>
<path d="M31.342 25.559l-14.392-12.336c0.67-1.259 1.051-2.696 1.051-4.222 0-4.971-4.029-9-9-9-0.909 0-1.787 0.135-2.614 0.386l5.2 5.2c0.778 0.778 0.778 2.051 0 2.828l-3.172 3.172c-0.778 0.778-2.051 0.778-2.828 0l-5.2-5.2c-0.251 0.827-0.386 1.705-0.386 2.614 0 4.971 4.029 9 9 9 1.526 0 2.963-0.38 4.222-1.051l12.336 14.392c0.716 0.835 1.938 0.882 2.716 0.104l3.172-3.172c0.778-0.778 0.731-2-0.104-2.716z"></path>
</symbol>
<symbol id="icon-cog" viewBox="0 0 32 32">
<title>cog</title>
<path d="M29.181 19.070c-1.679-2.908-0.669-6.634 2.255-8.328l-3.145-5.447c-0.898 0.527-1.943 0.829-3.058 0.829-3.361 0-6.085-2.742-6.085-6.125h-6.289c0.008 1.044-0.252 2.103-0.811 3.070-1.679 2.908-5.411 3.897-8.339 2.211l-3.144 5.447c0.905 0.515 1.689 1.268 2.246 2.234 1.676 2.903 0.672 6.623-2.241 8.319l3.145 5.447c0.895-0.522 1.935-0.82 3.044-0.82 3.35 0 6.067 2.725 6.084 6.092h6.289c-0.003-1.034 0.259-2.080 0.811-3.038 1.676-2.903 5.399-3.894 8.325-2.219l3.145-5.447c-0.899-0.515-1.678-1.266-2.232-2.226zM16 22.479c-3.578 0-6.479-2.901-6.479-6.479s2.901-6.479 6.479-6.479c3.578 0 6.479 2.901 6.479 6.479s-2.901 6.479-6.479 6.479z"></path>
</symbol>
<symbol id="icon-cogs" viewBox="0 0 32 32">
<title>cogs</title>
<path d="M11.366 22.564l1.291-1.807-1.414-1.414-1.807 1.291c-0.335-0.187-0.694-0.337-1.071-0.444l-0.365-2.19h-2l-0.365 2.19c-0.377 0.107-0.736 0.256-1.071 0.444l-1.807-1.291-1.414 1.414 1.291 1.807c-0.187 0.335-0.337 0.694-0.443 1.071l-2.19 0.365v2l2.19 0.365c0.107 0.377 0.256 0.736 0.444 1.071l-1.291 1.807 1.414 1.414 1.807-1.291c0.335 0.187 0.694 0.337 1.071 0.444l0.365 2.19h2l0.365-2.19c0.377-0.107 0.736-0.256 1.071-0.444l1.807 1.291 1.414-1.414-1.291-1.807c0.187-0.335 0.337-0.694 0.444-1.071l2.19-0.365v-2l-2.19-0.365c-0.107-0.377-0.256-0.736-0.444-1.071zM7 27c-1.105 0-2-0.895-2-2s0.895-2 2-2 2 0.895 2 2-0.895 2-2 2zM32 12v-2l-2.106-0.383c-0.039-0.251-0.088-0.499-0.148-0.743l1.799-1.159-0.765-1.848-2.092 0.452c-0.132-0.216-0.273-0.426-0.422-0.629l1.219-1.761-1.414-1.414-1.761 1.219c-0.203-0.149-0.413-0.29-0.629-0.422l0.452-2.092-1.848-0.765-1.159 1.799c-0.244-0.059-0.492-0.109-0.743-0.148l-0.383-2.106h-2l-0.383 2.106c-0.251 0.039-0.499 0.088-0.743 0.148l-1.159-1.799-1.848 0.765 0.452 2.092c-0.216 0.132-0.426 0.273-0.629 0.422l-1.761-1.219-1.414 1.414 1.219 1.761c-0.149 0.203-0.29 0.413-0.422 0.629l-2.092-0.452-0.765 1.848 1.799 1.159c-0.059 0.244-0.109 0.492-0.148 0.743l-2.106 0.383v2l2.106 0.383c0.039 0.251 0.088 0.499 0.148 0.743l-1.799 1.159 0.765 1.848 2.092-0.452c0.132 0.216 0.273 0.426 0.422 0.629l-1.219 1.761 1.414 1.414 1.761-1.219c0.203 0.149 0.413 0.29 0.629 0.422l-0.452 2.092 1.848 0.765 1.159-1.799c0.244 0.059 0.492 0.109 0.743 0.148l0.383 2.106h2l0.383-2.106c0.251-0.039 0.499-0.088 0.743-0.148l1.159 1.799 1.848-0.765-0.452-2.092c0.216-0.132 0.426-0.273 0.629-0.422l1.761 1.219 1.414-1.414-1.219-1.761c0.149-0.203 0.29-0.413 0.422-0.629l2.092 0.452 0.765-1.848-1.799-1.159c0.059-0.244 0.109-0.492 0.148-0.743l2.106-0.383zM21 15.35c-2.402 0-4.35-1.948-4.35-4.35s1.948-4.35 4.35-4.35 4.35 1.948 4.35 4.35c0 2.402-1.948 4.35-4.35 4.35z"></path>
</symbol>
<symbol id="icon-trophy1" viewBox="0 0 32 32">
<title>trophy1</title>
<path d="M26 6v-4h-20v4h-6v4c0 3.314 2.686 6 6 6 0.627 0 1.232-0.096 1.801-0.275 1.443 2.063 3.644 3.556 6.199 4.075v6.2h-2c-2.209 0-4 1.791-4 4h16c0-2.209-1.791-4-4-4h-2v-6.2c2.555-0.519 4.756-2.012 6.199-4.075 0.568 0.179 1.173 0.275 1.801 0.275 3.314 0 6-2.686 6-6v-4h-6zM6 13.625c-1.999 0-3.625-1.626-3.625-3.625v-2h3.625v2c0 1.256 0.232 2.457 0.655 3.565-0.213 0.039-0.431 0.060-0.655 0.060zM29.625 10c0 1.999-1.626 3.625-3.625 3.625-0.224 0-0.442-0.021-0.655-0.060 0.423-1.107 0.655-2.309 0.655-3.565v-2h3.625v2z"></path>
</symbol>
<symbol id="icon-briefcase2" viewBox="0 0 32 32">
<title>briefcase2</title>
<path d="M30 8h-8v-2c0-1.1-0.9-2-2-2h-8c-1.1 0-2 0.9-2 2v2h-8c-1.1 0-2 0.9-2 2v18c0 1.1 0.9 2 2 2h28c1.1 0 2-0.9 2-2v-18c0-1.1-0.9-2-2-2zM12 6.004c0.001-0.001 0.002-0.003 0.004-0.004h7.993c0.001 0.001 0.003 0.002 0.004 0.004v1.996h-8v-1.996zM30 16h-4v3c0 0.55-0.45 1-1 1h-2c-0.55 0-1-0.45-1-1v-3h-12v3c0 0.55-0.45 1-1 1h-2c-0.55 0-1-0.45-1-1v-3h-4v-2h28v2z"></path>
</symbol>
<symbol id="icon-cloud3" viewBox="0 0 32 32">
<title>cloud3</title>
<path d="M32 20.548c0-2.565-1.771-4.716-4.156-5.296-0.101-4.022-3.389-7.252-7.433-7.252-2.369 0-4.477 1.109-5.839 2.835-0.764-0.987-1.959-1.624-3.303-1.624-2.307 0-4.176 1.871-4.176 4.179 0 0.201 0.015 0.399 0.043 0.592-0.351-0.063-0.711-0.098-1.080-0.098-3.344-0-6.054 2.712-6.054 6.058s2.71 6.058 6.054 6.058l20.508-0c3.004-0.006 5.438-2.444 5.438-5.451z"></path>
</symbol>
<symbol id="icon-sphere" viewBox="0 0 32 32">
<title>sphere</title>
<path d="M15 2c-8.284 0-15 6.716-15 15s6.716 15 15 15c8.284 0 15-6.716 15-15s-6.716-15-15-15zM23.487 22c0.268-1.264 0.437-2.606 0.492-4h3.983c-0.104 1.381-0.426 2.722-0.959 4h-3.516zM6.513 12c-0.268 1.264-0.437 2.606-0.492 4h-3.983c0.104-1.381 0.426-2.722 0.959-4h3.516zM21.439 12c0.3 1.28 0.481 2.62 0.54 4h-5.979v-4h5.439zM16 10v-5.854c0.456 0.133 0.908 0.355 1.351 0.668 0.831 0.586 1.625 1.488 2.298 2.609 0.465 0.775 0.867 1.638 1.203 2.578h-4.852zM10.351 7.422c0.673-1.121 1.467-2.023 2.298-2.609 0.443-0.313 0.895-0.535 1.351-0.668v5.854h-4.852c0.336-0.94 0.738-1.803 1.203-2.578zM14 12v4h-5.979c0.059-1.38 0.24-2.72 0.54-4h5.439zM2.997 22c-0.533-1.278-0.854-2.619-0.959-4h3.983c0.055 1.394 0.224 2.736 0.492 4h-3.516zM8.021 18h5.979v4h-5.439c-0.3-1.28-0.481-2.62-0.54-4zM14 24v5.854c-0.456-0.133-0.908-0.355-1.351-0.668-0.831-0.586-1.625-1.488-2.298-2.609-0.465-0.775-0.867-1.638-1.203-2.578h4.852zM19.649 26.578c-0.673 1.121-1.467 2.023-2.298 2.609-0.443 0.312-0.895 0.535-1.351 0.668v-5.854h4.852c-0.336 0.94-0.738 1.802-1.203 2.578zM16 22v-4h5.979c-0.059 1.38-0.24 2.72-0.54 4h-5.439zM23.98 16c-0.055-1.394-0.224-2.736-0.492-4h3.516c0.533 1.278 0.855 2.619 0.959 4h-3.983zM25.958 10h-2.997c-0.582-1.836-1.387-3.447-2.354-4.732 1.329 0.636 2.533 1.488 3.585 2.54 0.671 0.671 1.261 1.404 1.766 2.192zM5.808 7.808c1.052-1.052 2.256-1.904 3.585-2.54-0.967 1.285-1.771 2.896-2.354 4.732h-2.997c0.504-0.788 1.094-1.521 1.766-2.192zM4.042 24h2.997c0.583 1.836 1.387 3.447 2.354 4.732-1.329-0.636-2.533-1.488-3.585-2.54-0.671-0.671-1.261-1.404-1.766-2.192zM24.192 26.192c-1.052 1.052-2.256 1.904-3.585 2.54 0.967-1.285 1.771-2.896 2.354-4.732h2.997c-0.504 0.788-1.094 1.521-1.766 2.192z"></path>
</symbol>
<symbol id="icon-earth1" viewBox="0 0 32 32">
<title>earth1</title>
<path d="M16 0c-8.837 0-16 7.163-16 16s7.163 16 16 16 16-7.163 16-16-7.163-16-16-16zM16 30c-1.967 0-3.84-0.407-5.538-1.139l7.286-8.197c0.163-0.183 0.253-0.419 0.253-0.664v-3c0-0.552-0.448-1-1-1-3.531 0-7.256-3.671-7.293-3.707-0.188-0.188-0.442-0.293-0.707-0.293h-4c-0.552 0-1 0.448-1 1v6c0 0.379 0.214 0.725 0.553 0.894l3.447 1.724v5.871c-3.627-2.53-6-6.732-6-11.489 0-2.147 0.484-4.181 1.348-6h3.652c0.265 0 0.52-0.105 0.707-0.293l4-4c0.188-0.188 0.293-0.442 0.293-0.707v-2.419c1.268-0.377 2.61-0.581 4-0.581 2.2 0 4.281 0.508 6.134 1.412-0.13 0.109-0.256 0.224-0.376 0.345-1.133 1.133-1.757 2.64-1.757 4.243s0.624 3.109 1.757 4.243c1.139 1.139 2.663 1.758 4.239 1.758 0.099 0 0.198-0.002 0.297-0.007 0.432 1.619 1.211 5.833-0.263 11.635-0.014 0.055-0.022 0.109-0.026 0.163-2.541 2.596-6.084 4.208-10.004 4.208z"></path>
</symbol>
<symbol id="icon-flag" viewBox="0 0 32 32">
<title>flag</title>
<path d="M0 0h4v32h-4v-32z"></path>
<path d="M26 20.094c2.582 0 4.83-0.625 6-1.547v-16c-1.17 0.922-3.418 1.547-6 1.547s-4.83-0.625-6-1.547v16c1.17 0.922 3.418 1.547 6 1.547z"></path>
<path d="M19 1.016c-1.466-0.623-3.61-1.016-6-1.016-3.012 0-5.635 0.625-7 1.547v16c1.365-0.922 3.988-1.547 7-1.547 2.39 0 4.534 0.393 6 1.016v-16z"></path>
</symbol>
<symbol id="icon-embed2" viewBox="0 0 40 32">
<title>embed2</title>
<path d="M26 23l3 3 10-10-10-10-3 3 7 7z"></path>
<path d="M14 9l-3-3-10 10 10 10 3-3-7-7z"></path>
<path d="M21.916 4.704l2.171 0.592-6 22.001-2.171-0.592 6-22.001z"></path>
</symbol>
<symbol id="icon-mail" viewBox="0 0 32 32">
<title>mail</title>
<path d="M26.666 0h-21.332c-2.934 0-5.334 2.4-5.334 5.333v21.333c0 2.934 2.4 5.334 5.334 5.334h21.332c2.936 0 5.334-2.4 5.334-5.334v-21.333c0-2.934-2.398-5.333-5.334-5.333zM8 8h16c0.286 0 0.563 0.061 0.817 0.177l-8.817 10.286-8.817-10.287c0.254-0.116 0.531-0.177 0.817-0.177zM6 22v-12c0-0.042 0.002-0.084 0.004-0.125l5.864 6.842-5.8 5.8c-0.045-0.167-0.069-0.34-0.069-0.517zM24 24h-16c-0.177 0-0.35-0.024-0.517-0.069l5.691-5.691 2.826 3.297 2.826-3.297 5.691 5.691c-0.167 0.045-0.34 0.069-0.517 0.069zM26 22c0 0.177-0.024 0.35-0.069 0.517l-5.8-5.8 5.864-6.842c0.003 0.041 0.004 0.083 0.004 0.125v12z"></path>
</symbol>
<symbol id="icon-mail2" viewBox="0 0 32 32">
<title>mail2</title>
<path d="M26.667 0h-21.333c-2.934 0-5.334 2.4-5.334 5.334v21.332c0 2.936 2.4 5.334 5.334 5.334h21.333c2.934 0 5.333-2.398 5.333-5.334v-21.332c0-2.934-2.399-5.334-5.333-5.334zM26.667 4c0.25 0 0.486 0.073 0.688 0.198l-11.355 9.388-11.355-9.387c0.202-0.125 0.439-0.198 0.689-0.198h21.333zM5.334 28c-0.060 0-0.119-0.005-0.178-0.013l7.051-9.78-0.914-0.914-7.293 7.293v-19.098l12 14.512 12-14.512v19.098l-7.293-7.293-0.914 0.914 7.051 9.78c-0.058 0.008-0.117 0.013-0.177 0.013h-21.333z"></path>
</symbol>
<symbol id="icon-mail3" viewBox="0 0 32 32">
<title>mail3</title>
<path d="M26.667 0h-21.333c-2.934 0-5.334 2.4-5.334 5.334v21.332c0 2.936 2.4 5.334 5.334 5.334h21.333c2.934 0 5.333-2.398 5.333-5.334v-21.332c0-2.934-2.399-5.334-5.333-5.334zM5.707 27.707l-2.414-2.414 8-8 0.914 0.914-6.5 9.5zM4.793 6.207l0.914-0.914 10.293 8.293 10.293-8.293 0.914 0.914-11.207 13.207-11.207-13.207zM26.293 27.707l-6.5-9.5 0.914-0.914 8 8-2.414 2.414z"></path>
</symbol>
<symbol id="icon-mail4" viewBox="0 0 32 32">
<title>mail4</title>
<path d="M16 0c-8.837 0-16 7.163-16 16s7.163 16 16 16 16-7.163 16-16-7.163-16-16-16zM8 8h16c0.286 0 0.563 0.061 0.817 0.177l-8.817 10.286-8.817-10.287c0.254-0.116 0.531-0.177 0.817-0.177zM6 22v-12c0-0.042 0.002-0.084 0.004-0.125l5.864 6.842-5.8 5.8c-0.045-0.167-0.069-0.34-0.069-0.517zM24 24h-16c-0.177 0-0.35-0.024-0.517-0.069l5.691-5.691 2.826 3.297 2.826-3.297 5.691 5.691c-0.167 0.045-0.34 0.069-0.517 0.069zM26 22c0 0.177-0.024 0.35-0.069 0.517l-5.8-5.8 5.865-6.842c0.003 0.041 0.004 0.083 0.004 0.125v12z"></path>
</symbol>
<symbol id="icon-amazon" viewBox="0 0 32 32">
<title>amazon</title>
<path d="M28.925 27.663c-3.506 2.587-8.581 3.962-12.956 3.962-6.131 0-11.65-2.262-15.825-6.038-0.325-0.294-0.038-0.7 0.356-0.469 4.506 2.625 10.081 4.2 15.838 4.2 3.881 0 8.15-0.806 12.081-2.475 0.587-0.25 1.087 0.394 0.506 0.819z"></path>
<path d="M30.381 26c-0.45-0.575-2.962-0.275-4.094-0.137-0.344 0.038-0.394-0.256-0.087-0.475 2.006-1.406 5.294-1 5.675-0.531 0.387 0.475-0.1 3.769-1.981 5.344-0.288 0.244-0.563 0.113-0.438-0.206 0.431-1.056 1.375-3.419 0.925-3.994z"></path>
<path d="M22.106 23.675l0.006 0.006c0.775-0.681 2.169-1.9 2.956-2.556 0.313-0.25 0.256-0.669 0.012-1.019-0.706-0.975-1.456-1.769-1.456-3.569v-6c0-2.544 0.175-4.875-1.694-6.625-1.475-1.413-3.925-1.913-5.8-1.913-3.662 0-7.75 1.369-8.606 5.894-0.094 0.481 0.263 0.738 0.575 0.806l3.731 0.406c0.35-0.019 0.6-0.363 0.669-0.713 0.319-1.556 1.625-2.313 3.094-2.313 0.794 0 1.694 0.287 2.163 1 0.538 0.794 0.469 1.875 0.469 2.794v0.5c-2.231 0.25-5.15 0.412-7.238 1.331-2.412 1.044-4.106 3.169-4.106 6.294 0 4 2.519 6 5.763 6 2.738 0 4.231-0.644 6.344-2.806 0.7 1.012 0.925 1.506 2.206 2.569 0.294 0.156 0.656 0.144 0.913-0.087zM18.225 14.287c0 1.5 0.038 2.75-0.719 4.081-0.613 1.087-1.581 1.75-2.662 1.75-1.475 0-2.338-1.125-2.338-2.788 0-3.281 2.944-3.875 5.725-3.875v0.831z"></path>
</symbol>
<symbol id="icon-google" viewBox="0 0 32 32">
<title>google</title>
<path d="M16.319 13.713v5.487h9.075c-0.369 2.356-2.744 6.9-9.075 6.9-5.463 0-9.919-4.525-9.919-10.1s4.456-10.1 9.919-10.1c3.106 0 5.188 1.325 6.375 2.469l4.344-4.181c-2.788-2.612-6.4-4.188-10.719-4.188-8.844 0-16 7.156-16 16s7.156 16 16 16c9.231 0 15.363-6.494 15.363-15.631 0-1.050-0.113-1.85-0.25-2.65l-15.113-0.006z"></path>
</symbol>
<symbol id="icon-google2" viewBox="0 0 32 32">
<title>google2</title>
<path d="M29 0h-26c-1.65 0-3 1.35-3 3v26c0 1.65 1.35 3 3 3h26c1.65 0 3-1.35 3-3v-26c0-1.65-1.35-3-3-3zM16.238 28c-6.631 0-12-5.369-12-12s5.369-12 12-12c3.238 0 5.95 1.181 8.037 3.138l-3.256 3.138c-0.894-0.856-2.45-1.85-4.781-1.85-4.1 0-7.438 3.394-7.438 7.575s3.344 7.575 7.438 7.575c4.75 0 6.531-3.413 6.806-5.175h-6.806v-4.113h11.331c0.1 0.6 0.188 1.2 0.188 1.988 0.006 6.856-4.588 11.725-11.519 11.725z"></path>
</symbol>
<symbol id="icon-google3" viewBox="0 0 32 32">
<title>google3</title>
<path d="M16 0c-8.838 0-16 7.162-16 16s7.162 16 16 16 16-7.163 16-16-7.163-16-16-16zM16.238 28c-6.631 0-12-5.369-12-12s5.369-12 12-12c3.238 0 5.95 1.181 8.037 3.138l-3.256 3.138c-0.894-0.856-2.45-1.85-4.781-1.85-4.1 0-7.438 3.394-7.438 7.575s3.344 7.575 7.438 7.575c4.75 0 6.531-3.413 6.806-5.175h-6.806v-4.113h11.331c0.1 0.6 0.188 1.2 0.188 1.988 0.006 6.856-4.588 11.725-11.519 11.725z"></path>
</symbol>
<symbol id="icon-google-plus" viewBox="0 0 32 32">
<title>google-plus</title>
<path d="M10.181 14.294v3.494h5.775c-0.231 1.5-1.744 4.394-5.775 4.394-3.475 0-6.313-2.881-6.313-6.431s2.838-6.431 6.313-6.431c1.981 0 3.3 0.844 4.056 1.569l2.762-2.662c-1.775-1.656-4.075-2.662-6.819-2.662-5.631 0.006-10.181 4.556-10.181 10.188s4.55 10.181 10.181 10.181c5.875 0 9.775-4.131 9.775-9.95 0-0.669-0.075-1.181-0.163-1.688h-9.613z"></path>
<path d="M32 14h-3v-3h-3v3h-3v3h3v3h3v-3h3z"></path>
</symbol>
<symbol id="icon-google-plus2" viewBox="0 0 32 32">
<title>google-plus2</title>
<path d="M29 0h-26c-1.65 0-3 1.35-3 3v26c0 1.65 1.35 3 3 3h26c1.65 0 3-1.35 3-3v-26c0-1.65-1.35-3-3-3zM12 24c-4.425 0-8-3.575-8-8s3.575-8 8-8c2.162 0 3.969 0.787 5.363 2.094l-2.175 2.088c-0.594-0.569-1.631-1.231-3.188-1.231-2.731 0-4.963 2.263-4.963 5.050s2.231 5.050 4.963 5.050c3.169 0 4.356-2.275 4.538-3.45h-4.537v-2.744h7.556c0.069 0.4 0.125 0.8 0.125 1.325 0 4.575-3.063 7.819-7.681 7.819zM28 16h-2v2h-2v-2h-2v-2h2v-2h2v2h2v2z"></path>
</symbol>
<symbol id="icon-google-plus3" viewBox="0 0 32 32">
<title>google-plus3</title>
<path d="M16 0c-8.838 0-16 7.162-16 16s7.162 16 16 16 16-7.163 16-16-7.163-16-16-16zM12 24c-4.425 0-8-3.575-8-8s3.575-8 8-8c2.162 0 3.969 0.787 5.363 2.094l-2.175 2.088c-0.594-0.569-1.631-1.231-3.188-1.231-2.731 0-4.963 2.263-4.963 5.050s2.231 5.050 4.963 5.050c3.169 0 4.356-2.275 4.538-3.45h-4.537v-2.744h7.556c0.069 0.4 0.125 0.8 0.125 1.325 0 4.575-3.063 7.819-7.681 7.819zM26 16v2h-2v-2h-2v-2h2v-2h2v2h2v2h-2z"></path>
</symbol>
<symbol id="icon-facebook" viewBox="0 0 32 32">
<title>facebook</title>
<path d="M19 6h5v-6h-5c-3.86 0-7 3.14-7 7v3h-4v6h4v16h6v-16h5l1-6h-6v-3c0-0.542 0.458-1 1-1z"></path>
</symbol>
<symbol id="icon-facebook2" viewBox="0 0 32 32">
<title>facebook2</title>
<path d="M29 0h-26c-1.65 0-3 1.35-3 3v26c0 1.65 1.35 3 3 3h13v-14h-4v-4h4v-2c0-3.306 2.694-6 6-6h4v4h-4c-1.1 0-2 0.9-2 2v2h6l-1 4h-5v14h9c1.65 0 3-1.35 3-3v-26c0-1.65-1.35-3-3-3z"></path>
</symbol>
<symbol id="icon-instagram" viewBox="0 0 32 32">
<title>instagram</title>
<path d="M16 2.881c4.275 0 4.781 0.019 6.462 0.094 1.563 0.069 2.406 0.331 2.969 0.55 0.744 0.288 1.281 0.638 1.837 1.194 0.563 0.563 0.906 1.094 1.2 1.838 0.219 0.563 0.481 1.412 0.55 2.969 0.075 1.688 0.094 2.194 0.094 6.463s-0.019 4.781-0.094 6.463c-0.069 1.563-0.331 2.406-0.55 2.969-0.288 0.744-0.637 1.281-1.194 1.837-0.563 0.563-1.094 0.906-1.837 1.2-0.563 0.219-1.413 0.481-2.969 0.55-1.688 0.075-2.194 0.094-6.463 0.094s-4.781-0.019-6.463-0.094c-1.563-0.069-2.406-0.331-2.969-0.55-0.744-0.288-1.281-0.637-1.838-1.194-0.563-0.563-0.906-1.094-1.2-1.837-0.219-0.563-0.481-1.413-0.55-2.969-0.075-1.688-0.094-2.194-0.094-6.463s0.019-4.781 0.094-6.463c0.069-1.563 0.331-2.406 0.55-2.969 0.288-0.744 0.638-1.281 1.194-1.838 0.563-0.563 1.094-0.906 1.838-1.2 0.563-0.219 1.412-0.481 2.969-0.55 1.681-0.075 2.188-0.094 6.463-0.094zM16 0c-4.344 0-4.887 0.019-6.594 0.094-1.7 0.075-2.869 0.35-3.881 0.744-1.056 0.412-1.95 0.956-2.837 1.85-0.894 0.888-1.438 1.781-1.85 2.831-0.394 1.019-0.669 2.181-0.744 3.881-0.075 1.713-0.094 2.256-0.094 6.6s0.019 4.887 0.094 6.594c0.075 1.7 0.35 2.869 0.744 3.881 0.413 1.056 0.956 1.95 1.85 2.837 0.887 0.887 1.781 1.438 2.831 1.844 1.019 0.394 2.181 0.669 3.881 0.744 1.706 0.075 2.25 0.094 6.594 0.094s4.888-0.019 6.594-0.094c1.7-0.075 2.869-0.35 3.881-0.744 1.050-0.406 1.944-0.956 2.831-1.844s1.438-1.781 1.844-2.831c0.394-1.019 0.669-2.181 0.744-3.881 0.075-1.706 0.094-2.25 0.094-6.594s-0.019-4.887-0.094-6.594c-0.075-1.7-0.35-2.869-0.744-3.881-0.394-1.063-0.938-1.956-1.831-2.844-0.887-0.887-1.781-1.438-2.831-1.844-1.019-0.394-2.181-0.669-3.881-0.744-1.712-0.081-2.256-0.1-6.6-0.1v0z"></path>
<path d="M16 7.781c-4.537 0-8.219 3.681-8.219 8.219s3.681 8.219 8.219 8.219 8.219-3.681 8.219-8.219c0-4.537-3.681-8.219-8.219-8.219zM16 21.331c-2.944 0-5.331-2.387-5.331-5.331s2.387-5.331 5.331-5.331c2.944 0 5.331 2.387 5.331 5.331s-2.387 5.331-5.331 5.331z"></path>
<path d="M26.462 7.456c0 1.060-0.859 1.919-1.919 1.919s-1.919-0.859-1.919-1.919c0-1.060 0.859-1.919 1.919-1.919s1.919 0.859 1.919 1.919z"></path>
</symbol>
<symbol id="icon-whatsapp" viewBox="0 0 32 32">
<title>whatsapp</title>
<path d="M27.281 4.65c-2.994-3-6.975-4.65-11.219-4.65-8.738 0-15.85 7.112-15.85 15.856 0 2.794 0.731 5.525 2.119 7.925l-2.25 8.219 8.406-2.206c2.319 1.262 4.925 1.931 7.575 1.931h0.006c0 0 0 0 0 0 8.738 0 15.856-7.113 15.856-15.856 0-4.238-1.65-8.219-4.644-11.219zM16.069 29.050v0c-2.369 0-4.688-0.637-6.713-1.837l-0.481-0.288-4.987 1.306 1.331-4.863-0.313-0.5c-1.325-2.094-2.019-4.519-2.019-7.012 0-7.269 5.912-13.181 13.188-13.181 3.519 0 6.831 1.375 9.319 3.862 2.488 2.494 3.856 5.8 3.856 9.325-0.006 7.275-5.919 13.188-13.181 13.188zM23.294 19.175c-0.394-0.2-2.344-1.156-2.706-1.288s-0.625-0.2-0.894 0.2c-0.262 0.394-1.025 1.288-1.256 1.556-0.231 0.262-0.462 0.3-0.856 0.1s-1.675-0.619-3.188-1.969c-1.175-1.050-1.975-2.35-2.206-2.744s-0.025-0.613 0.175-0.806c0.181-0.175 0.394-0.463 0.594-0.694s0.262-0.394 0.394-0.662c0.131-0.262 0.069-0.494-0.031-0.694s-0.894-2.15-1.219-2.944c-0.319-0.775-0.65-0.669-0.894-0.681-0.231-0.012-0.494-0.012-0.756-0.012s-0.694 0.1-1.056 0.494c-0.363 0.394-1.387 1.356-1.387 3.306s1.419 3.831 1.619 4.1c0.2 0.262 2.794 4.269 6.769 5.981 0.944 0.406 1.681 0.65 2.256 0.837 0.95 0.3 1.813 0.256 2.494 0.156 0.762-0.113 2.344-0.956 2.675-1.881s0.331-1.719 0.231-1.881c-0.094-0.175-0.356-0.275-0.756-0.475z"></path>
</symbol>
<symbol id="icon-spotify" viewBox="0 0 32 32">
<title>spotify</title>
<path d="M16 0c-8.8 0-16 7.2-16 16s7.2 16 16 16 16-7.2 16-16-7.119-16-16-16zM23.363 23.119c-0.319 0.481-0.881 0.637-1.363 0.319-3.762-2.319-8.481-2.8-14.081-1.519-0.563 0.163-1.037-0.238-1.2-0.719-0.162-0.563 0.237-1.038 0.719-1.2 6.081-1.363 11.363-0.8 15.519 1.762 0.563 0.238 0.644 0.875 0.406 1.356zM25.281 18.719c-0.4 0.563-1.119 0.8-1.681 0.4-4.319-2.637-10.881-3.438-15.919-1.837-0.638 0.163-1.362-0.163-1.519-0.8-0.162-0.637 0.162-1.363 0.8-1.519 5.838-1.762 13.037-0.881 18 2.163 0.475 0.238 0.719 1.038 0.319 1.594zM25.438 14.238c-5.119-3.037-13.681-3.363-18.563-1.838-0.8 0.238-1.6-0.238-1.838-0.963-0.237-0.8 0.237-1.6 0.963-1.838 5.681-1.681 15.038-1.363 20.962 2.162 0.719 0.4 0.962 1.363 0.563 2.081-0.406 0.556-1.363 0.794-2.087 0.394z"></path>
</symbol>
<symbol id="icon-telegram" viewBox="0 0 32 32">
<title>telegram</title>
<path d="M16 0c-8.838 0-16 7.162-16 16s7.162 16 16 16 16-7.163 16-16-7.163-16-16-16zM23.863 10.969l-2.625 12.369c-0.181 0.881-0.712 1.087-1.45 0.681l-4-2.956-1.919 1.869c-0.225 0.219-0.4 0.4-0.8 0.4-0.519 0-0.431-0.194-0.606-0.688l-1.363-4.475-3.956-1.231c-0.856-0.262-0.862-0.85 0.194-1.269l15.412-5.95c0.7-0.319 1.381 0.169 1.113 1.25z"></path>
</symbol>
<symbol id="icon-twitter" viewBox="0 0 32 32">
<title>twitter</title>
<path d="M32 7.075c-1.175 0.525-2.444 0.875-3.769 1.031 1.356-0.813 2.394-2.1 2.887-3.631-1.269 0.75-2.675 1.3-4.169 1.594-1.2-1.275-2.906-2.069-4.794-2.069-3.625 0-6.563 2.938-6.563 6.563 0 0.512 0.056 1.012 0.169 1.494-5.456-0.275-10.294-2.888-13.531-6.862-0.563 0.969-0.887 2.1-0.887 3.3 0 2.275 1.156 4.287 2.919 5.463-1.075-0.031-2.087-0.331-2.975-0.819 0 0.025 0 0.056 0 0.081 0 3.181 2.263 5.838 5.269 6.437-0.55 0.15-1.131 0.231-1.731 0.231-0.425 0-0.831-0.044-1.237-0.119 0.838 2.606 3.263 4.506 6.131 4.563-2.25 1.762-5.075 2.813-8.156 2.813-0.531 0-1.050-0.031-1.569-0.094 2.913 1.869 6.362 2.95 10.069 2.95 12.075 0 18.681-10.006 18.681-18.681 0-0.287-0.006-0.569-0.019-0.85 1.281-0.919 2.394-2.075 3.275-3.394z"></path>
</symbol>
<symbol id="icon-rss" viewBox="0 0 32 32">
<title>rss</title>
<path d="M4.259 23.467c-2.35 0-4.259 1.917-4.259 4.252 0 2.349 1.909 4.244 4.259 4.244 2.358 0 4.265-1.895 4.265-4.244-0-2.336-1.907-4.252-4.265-4.252zM0.005 10.873v6.133c3.993 0 7.749 1.562 10.577 4.391 2.825 2.822 4.384 6.595 4.384 10.603h6.16c-0-11.651-9.478-21.127-21.121-21.127zM0.012 0v6.136c14.243 0 25.836 11.604 25.836 25.864h6.152c0-17.64-14.352-32-31.988-32z"></path>
</symbol>
<symbol id="icon-rss2" viewBox="0 0 32 32">
<title>rss2</title>
<path d="M29 0h-26c-1.65 0-3 1.35-3 3v26c0 1.65 1.35 3 3 3h26c1.65 0 3-1.35 3-3v-26c0-1.65-1.35-3-3-3zM8.719 25.975c-1.5 0-2.719-1.206-2.719-2.706 0-1.488 1.219-2.712 2.719-2.712 1.506 0 2.719 1.225 2.719 2.712 0 1.5-1.219 2.706-2.719 2.706zM15.544 26c0-2.556-0.994-4.962-2.794-6.762-1.806-1.806-4.2-2.8-6.75-2.8v-3.912c7.425 0 13.475 6.044 13.475 13.475h-3.931zM22.488 26c0-9.094-7.394-16.5-16.481-16.5v-3.912c11.25 0 20.406 9.162 20.406 20.413h-3.925z"></path>
</symbol>
<symbol id="icon-youtube" viewBox="0 0 32 32">
<title>youtube</title>
<path d="M31.681 9.6c0 0-0.313-2.206-1.275-3.175-1.219-1.275-2.581-1.281-3.206-1.356-4.475-0.325-11.194-0.325-11.194-0.325h-0.012c0 0-6.719 0-11.194 0.325-0.625 0.075-1.987 0.081-3.206 1.356-0.963 0.969-1.269 3.175-1.269 3.175s-0.319 2.588-0.319 5.181v2.425c0 2.587 0.319 5.181 0.319 5.181s0.313 2.206 1.269 3.175c1.219 1.275 2.819 1.231 3.531 1.369 2.563 0.244 10.881 0.319 10.881 0.319s6.725-0.012 11.2-0.331c0.625-0.075 1.988-0.081 3.206-1.356 0.962-0.969 1.275-3.175 1.275-3.175s0.319-2.587 0.319-5.181v-2.425c-0.006-2.588-0.325-5.181-0.325-5.181zM12.694 20.15v-8.994l8.644 4.513-8.644 4.481z"></path>
</symbol>
<symbol id="icon-youtube2" viewBox="0 0 80 32">
<title>youtube2</title>
<path d="M10.75 5.294c0.007-0.027 0.011-0.046 0.012-0.056l0.033-0.236-1.48-0.008c-1.337-0.008-1.746 0-1.783 0.034-0.018 0.016-0.479 1.77-1.302 4.946-0.392 1.515-0.723 2.725-0.734 2.689s-0.481-1.766-1.044-3.843c-0.563-2.078-1.034-3.789-1.048-3.803-0.019-0.019-1.812-0.028-3.263-0.016-0.21 0.002-0.327-0.41 1.876 6.598 0.305 0.97 0.762 2.344 1.015 3.052 0.292 0.817 0.5 1.448 0.642 1.974 0.251 1.002 0.26 1.63 0.205 2.363-0.063 0.847-0.073 6.826-0.011 6.926 0.047 0.077 2.851 0.112 3.116 0.040 0.042-0.012 0.071-0.053 0.090-0.279 0.066-0.194 0.071-0.968 0.071-4.18v-4.103l0.179-0.566c0.117-0.37 0.413-1.344 0.656-2.163s0.538-1.801 0.654-2.18c1.057-3.447 2.067-6.838 2.094-7.032l0.022-0.158z"></path>
<path d="M26.441 10.27l-0.001 0.214-0.033 0-0.019 5.906-0.018 5.726-0.458 0.467c-0.513 0.522-0.925 0.722-1.297 0.629-0.405-0.102-0.395 0.056-0.429-6.712l-0.031-6.23h-2.947v0.214h-0.034v6.759c0 7.242-0 7.237 0.367 7.965 0.293 0.579 0.719 0.861 1.45 0.958h0c0.962 0.128 2-0.308 2.962-1.244l0.418-0.407v0.701c0 0.606 0.017 0.706 0.127 0.737 0.18 0.050 2.412 0.053 2.653 0.004l0.2-0.041v-0.207l0.034-0.007v-15.472l-2.944 0.039z"></path>
<path d="M18.965 13.323c-0.279-1.198-0.802-2.004-1.664-2.561-1.353-0.875-2.897-0.967-4.331-0.259-1.045 0.516-1.717 1.372-2.065 2.628-0.041 0.15-0.072 0.275-0.095 0.463-0.088 0.443-0.099 1.105-0.122 4.186-0.035 4.748 0.019 5.313 0.614 6.391 0.583 1.058 1.794 1.833 3.112 1.993 0.397 0.048 1.201-0.027 1.663-0.155 1.051-0.291 2.058-1.122 2.504-2.065 0.192-0.407 0.309-0.691 0.379-1.208 0.13-0.707 0.14-1.849 0.14-4.762-0-3.715-0.012-4.121-0.136-4.651zM15.604 23c-0.247 0.188-0.679 0.27-1.031 0.195-0.271-0.058-0.636-0.482-0.748-0.869-0.14-0.482-0.151-7.187-0.030-8.502 0.199-0.658 0.756-1.002 1.364-0.838 0.474 0.128 0.716 0.424 0.854 1.046 0.103 0.461 0.115 1.035 0.093 4.414-0.014 2.241-0.022 3.336-0.096 3.924-0.074 0.371-0.197 0.47-0.407 0.63z"></path>
<path d="M71.887 16.692h1.424l-0.023-1.29c-0.022-1.183-0.039-1.319-0.198-1.64-0.249-0.507-0.617-0.731-1.201-0.731-0.701 0-1.146 0.339-1.356 1.036-0.089 0.296-0.183 2.334-0.116 2.51 0.038 0.098 0.241 0.116 1.469 0.116z"></path>
<path d="M62.369 13.757c-0.19-0.383-0.543-0.571-0.954-0.556-0.319 0.011-0.674 0.146-1.015 0.407l-0.254 0.193v9.269l0.254 0.193c0.576 0.439 1.209 0.532 1.644 0.241 0.172-0.115 0.285-0.274 0.372-0.527 0.114-0.329 0.124-0.75 0.109-4.649-0.015-4.064-0.024-4.303-0.157-4.57z"></path>
<path d="M80.027 9.582c-0.284-3.401-0.509-4.505-1.211-5.923-0.929-1.878-2.272-2.868-4.184-3.086-1.478-0.168-7.041-0.405-12.189-0.52-8.912-0.198-23.564 0.183-25.436 0.662-0.865 0.221-1.513 0.597-2.188 1.269-1.183 1.177-1.887 2.865-2.17 5.2-0.647 5.331-0.66 11.773-0.037 17.297 0.268 2.376 0.82 3.92 1.857 5.192 0.647 0.794 1.761 1.469 2.758 1.67 0.7 0.141 4.201 0.337 9.3 0.521 0.76 0.027 2.771 0.074 4.47 0.105 3.541 0.063 10.051 0.026 13.772-0.079 2.504-0.070 7.069-0.255 7.922-0.321 0.24-0.019 0.796-0.054 1.236-0.079 1.477-0.083 2.417-0.393 3.3-1.086 1.142-0.897 2.027-2.556 2.4-4.501 0.354-1.84 0.59-5.118 0.638-8.839 0.040-3.109-0.013-4.787-0.238-7.482zM44.54 8.35l-1.656 0.020-0.073 17.661-1.435 0.018c-1.11 0.015-1.447-0.001-1.474-0.073-0.019-0.051-0.042-4.032-0.052-8.849l-0.018-8.758-3.234-0.041v-2.76l9.557 0.039 0.041 2.721-1.656 0.020zM54.694 18.472v7.595h-2.616v-0.799c0-0.601-0.023-0.799-0.093-0.799-0.051 0-0.288 0.198-0.527 0.441-0.517 0.526-1.13 0.949-1.653 1.145-1.083 0.405-2.112 0.169-2.551-0.586-0.401-0.691-0.409-0.845-0.409-8.010v-6.58h2.614l0.020 6.196c0.019 6.088 0.022 6.2 0.168 6.448 0.193 0.329 0.488 0.417 0.956 0.288 0.276-0.076 0.464-0.21 0.911-0.654l0.563-0.561v-11.717h2.616v7.595zM64.899 24.982c-0.23 0.513-0.744 1.016-1.165 1.14-1.099 0.324-1.98 0.060-2.998-0.897-0.316-0.297-0.61-0.538-0.654-0.538-0.053 0-0.082 0.233-0.082 0.69v0.69h-2.616v-20.495h2.616v3.343c0 1.839 0.025 3.343 0.054 3.343s0.306-0.244 0.613-0.541c0.707-0.683 1.298-0.981 2.049-1.038 1.338-0.101 2.135 0.587 2.501 2.16 0.114 0.491 0.125 1.051 0.125 5.596-0 5.537-0.001 5.56-0.443 6.546zM75.968 21.943c-0.023 0.57-0.092 1.223-0.154 1.454-0.364 1.349-1.332 2.304-2.732 2.696-1.885 0.527-3.96-0.337-4.788-1.994-0.465-0.93-0.481-1.116-0.481-5.662 0-3.707 0.013-4.162 0.132-4.667 0.336-1.431 1.168-2.357 2.578-2.871 0.408-0.149 0.835-0.225 1.261-0.234 1.521-0.031 3.031 0.787 3.663 2.119 0.427 0.899 0.48 1.283 0.522 3.816l0.039 2.271-5.578 0.039-0.020 1.526c-0.029 2.153 0.116 2.815 0.697 3.207 0.489 0.329 1.24 0.305 1.649-0.055 0.383-0.337 0.491-0.698 0.529-1.753l0.034-0.927h2.694l-0.043 1.036z"></path>
</symbol>
<symbol id="icon-vimeo" viewBox="0 0 32 32">
<title>vimeo</title>
<path d="M31.988 8.563c-0.144 3.113-2.319 7.381-6.525 12.794-4.35 5.65-8.031 8.481-11.044 8.481-1.863 0-3.444-1.719-4.731-5.163-0.863-3.156-1.719-6.313-2.581-9.469-0.956-3.444-1.981-5.162-3.081-5.162-0.237 0-1.075 0.506-2.513 1.506l-1.506-1.938c1.581-1.387 3.138-2.775 4.669-4.162 2.106-1.819 3.688-2.775 4.744-2.875 2.487-0.237 4.025 1.463 4.6 5.106 0.619 3.931 1.050 6.375 1.294 7.331 0.719 3.263 1.506 4.894 2.369 4.894 0.669 0 1.675-1.056 3.019-3.175 1.337-2.113 2.056-3.725 2.156-4.831 0.194-1.825-0.525-2.744-2.156-2.744-0.769 0-1.556 0.175-2.369 0.525 1.575-5.15 4.575-7.65 9.012-7.506 3.281 0.087 4.831 2.219 4.644 6.388z"></path>
</symbol>
<symbol id="icon-vimeo2" viewBox="0 0 32 32">
<title>vimeo2</title>
<path d="M29 0h-26c-1.65 0-3 1.35-3 3v26c0 1.65 1.35 3 3 3h26c1.65 0 3-1.35 3-3v-26c0-1.65-1.35-3-3-3zM26.925 10.625c-0.1 2.25-1.675 5.331-4.719 9.244-3.144 4.087-5.806 6.131-7.981 6.131-1.35 0-2.488-1.244-3.419-3.731-0.625-2.281-1.244-4.563-1.869-6.844-0.688-2.488-1.431-3.731-2.225-3.731-0.175 0-0.781 0.363-1.813 1.088l-1.087-1.4c1.144-1 2.269-2.006 3.375-3.006 1.525-1.313 2.662-2.006 3.425-2.075 1.8-0.175 2.906 1.056 3.325 3.687 0.45 2.844 0.762 4.606 0.938 5.3 0.519 2.356 1.088 3.531 1.712 3.531 0.481 0 1.212-0.762 2.181-2.294s1.488-2.694 1.556-3.494c0.137-1.319-0.381-1.981-1.556-1.981-0.556 0-1.125 0.125-1.712 0.381 1.137-3.719 3.306-5.531 6.512-5.425 2.375 0.069 3.494 1.606 3.356 4.619z"></path>
</symbol>
<symbol id="icon-dribbble" viewBox="0 0 32 32">
<title>dribbble</title>
<path d="M16 32c-8.825 0-16-7.175-16-16s7.175-16 16-16c8.825 0 16 7.175 16 16s-7.175 16-16 16v0zM29.494 18.188c-0.469-0.15-4.231-1.269-8.512-0.581 1.788 4.912 2.512 8.912 2.656 9.744 3.063-2.075 5.25-5.356 5.856-9.163v0zM21.337 28.6c-0.206-1.2-0.994-5.375-2.913-10.363-0.031 0.012-0.063 0.019-0.087 0.031-7.713 2.688-10.481 8.031-10.725 8.531 2.319 1.806 5.231 2.887 8.387 2.887 1.894 0 3.7-0.387 5.338-1.087v0zM5.844 25.156c0.313-0.531 4.063-6.738 11.106-9.019 0.175-0.056 0.356-0.113 0.538-0.162-0.344-0.775-0.719-1.556-1.106-2.319-6.819 2.044-13.444 1.956-14.044 1.95-0.006 0.137-0.006 0.275-0.006 0.419 0 3.506 1.331 6.712 3.512 9.131v0zM2.625 13.219c0.612 0.006 6.244 0.031 12.637-1.662-2.262-4.025-4.706-7.412-5.069-7.906-3.825 1.806-6.688 5.331-7.569 9.569v0zM12.8 2.731c0.375 0.506 2.863 3.888 5.1 8 4.863-1.819 6.919-4.588 7.163-4.938-2.413-2.144-5.587-3.444-9.063-3.444-1.1 0.006-2.175 0.138-3.2 0.381v0zM26.581 7.381c-0.288 0.388-2.581 3.325-7.631 5.388 0.319 0.65 0.625 1.313 0.906 1.981 0.1 0.238 0.2 0.469 0.294 0.706 4.55-0.569 9.069 0.344 9.519 0.438-0.031-3.225-1.188-6.188-3.087-8.512v0z"></path>
</symbol>
<symbol id="icon-dropbox" viewBox="0 0 32 32">
<title>dropbox</title>
<path d="M23 1l-7 6 9 6 7-6z"></path>
<path d="M16 7l-7-6-9 6 7 6z"></path>
<path d="M25 13l7 6-9 5-7-6z"></path>
<path d="M16 18l-9-5-7 6 9 5z"></path>
<path d="M22.755 26.424l-6.755-5.79-6.755 5.79-4.245-2.358v2.934l11 5 11-5v-2.934z"></path>
</symbol>
<symbol id="icon-onedrive" viewBox="0 0 32 32">
<title>onedrive</title>
<path d="M10.965 25.887c-1.884-0.471-2.933-1.968-2.936-4.189-0.001-0.71 0.050-1.051 0.228-1.507 0.435-1.12 1.585-1.965 3.099-2.276 0.753-0.155 0.986-0.321 0.986-0.705 0-0.121 0.090-0.48 0.199-0.799 0.498-1.447 1.42-2.653 2.405-3.147 1.031-0.516 1.551-0.633 2.798-0.626 1.771 0.009 2.655 0.394 3.89 1.691l0.68 0.714 0.609-0.211c2.947-1.020 5.885 0.716 6.122 3.617l0.065 0.794 0.58 0.208c1.657 0.594 2.436 1.841 2.295 3.674-0.092 1.199-0.653 2.156-1.541 2.631l-0.417 0.223-9.276 0.018c-7.128 0.014-9.394-0.012-9.785-0.109v0zM3.226 24.561c-1.131-0.284-2.328-1.339-2.89-2.546-0.319-0.685-0.336-0.785-0.336-1.996 0-1.152 0.027-1.337 0.281-1.909 0.535-1.206 1.559-2.077 2.845-2.419 0.271-0.072 0.526-0.188 0.567-0.256s0.085-0.443 0.099-0.831c0.090-2.412 1.587-4.538 3.678-5.221 1.13-0.369 2.612-0.403 3.841 0.116 0.39 0.165 0.346 0.2 1.17-0.942 0.487-0.675 1.41-1.39 2.216-1.818 0.87-0.462 1.775-0.675 2.857-0.672 3.024 0.008 5.63 2.007 6.594 5.058 0.308 0.975 0.293 1.248-0.071 1.256-0.159 0.004-0.613 0.096-1.009 0.205l-0.721 0.199-0.658-0.695c-1.855-1.96-4.882-2.384-7.456-1.044-1.028 0.536-1.854 1.305-2.478 2.307-0.445 0.714-1.012 2.047-1.012 2.378 0 0.235-0.18 0.352-0.948 0.618-2.378 0.824-3.766 2.728-3.765 5.163 0 0.887 0.216 1.971 0.516 2.592 0.113 0.234 0.176 0.457 0.14 0.495-0.092 0.097-3.050 0.064-3.459-0.038v0z"></path>
</symbol>
<symbol id="icon-npm" viewBox="0 0 32 32">
<title>npm</title>
<path d="M0 0v32h32v-32h-32zM26 26h-4v-16h-6v16h-10v-20h20v20z"></path>
</symbol>
<symbol id="icon-wordpress" viewBox="0 0 32 32">
<title>wordpress</title>
<path d="M4 16c0 4.626 2.76 8.624 6.763 10.518l-5.724-15.274c-0.666 1.453-1.039 3.062-1.039 4.756zM24.101 15.41c0-1.445-0.533-2.445-0.989-3.223-0.608-0.963-1.179-1.778-1.179-2.741 0-1.074 0.836-2.074 2.015-2.074 0.053 0 0.104 0.006 0.155 0.009-2.135-1.905-4.979-3.069-8.103-3.069-4.192 0-7.881 2.095-10.026 5.268 0.282 0.009 0.547 0.014 0.772 0.014 1.255 0 3.198-0.149 3.198-0.149 0.647-0.037 0.723 0.889 0.077 0.963 0 0-0.65 0.074-1.373 0.111l4.37 12.66 2.626-7.671-1.869-4.989c-0.646-0.037-1.259-0.111-1.259-0.111-0.647-0.037-0.571-1 0.076-0.963 0 0 1.981 0.149 3.16 0.149 1.255 0 3.198-0.149 3.198-0.149 0.647-0.037 0.723 0.889 0.076 0.963 0 0-0.651 0.074-1.373 0.111l4.337 12.563 1.197-3.895c0.518-1.617 0.913-2.778 0.913-3.778zM16.211 17.022l-3.601 10.189c1.075 0.308 2.212 0.476 3.39 0.476 1.397 0 2.738-0.235 3.985-0.663-0.032-0.050-0.062-0.103-0.086-0.161l-3.688-9.842zM26.53 10.393c0.052 0.372 0.081 0.771 0.081 1.202 0 1.185-0.228 2.519-0.913 4.186l-3.665 10.321c3.568-2.026 5.967-5.79 5.967-10.102 0-2.032-0.533-3.943-1.47-5.607zM16 0c-8.837 0-16 7.163-16 16s7.163 16 16 16 16-7.163 16-16-7.163-16-16-16zM16 30c-7.732 0-14-6.268-14-14s6.268-14 14-14 14 6.268 14 14-6.268 14-14 14z"></path>
</symbol>
<symbol id="icon-appleinc" viewBox="0 0 32 32">
<title>appleinc</title>
<path d="M24.734 17.003c-0.040-4.053 3.305-5.996 3.454-6.093-1.88-2.751-4.808-3.127-5.851-3.171-2.492-0.252-4.862 1.467-6.127 1.467-1.261 0-3.213-1.43-5.28-1.392-2.716 0.040-5.221 1.579-6.619 4.012-2.822 4.897-0.723 12.151 2.028 16.123 1.344 1.944 2.947 4.127 5.051 4.049 2.026-0.081 2.793-1.311 5.242-1.311s3.138 1.311 5.283 1.271c2.18-0.041 3.562-1.981 4.897-3.931 1.543-2.255 2.179-4.439 2.216-4.551-0.048-0.022-4.252-1.632-4.294-6.473zM20.705 5.11c1.117-1.355 1.871-3.235 1.665-5.11-1.609 0.066-3.559 1.072-4.713 2.423-1.036 1.199-1.942 3.113-1.699 4.951 1.796 0.14 3.629-0.913 4.747-2.264z"></path>
</symbol>
<symbol id="icon-android" viewBox="0 0 32 32">
<title>android</title>
<path d="M28 12c-1.1 0-2 0.9-2 2v8c0 1.1 0.9 2 2 2s2-0.9 2-2v-8c0-1.1-0.9-2-2-2zM4 12c-1.1 0-2 0.9-2 2v8c0 1.1 0.9 2 2 2s2-0.9 2-2v-8c0-1.1-0.9-2-2-2zM7 23c0 1.657 1.343 3 3 3v0 4c0 1.1 0.9 2 2 2s2-0.9 2-2v-4h4v4c0 1.1 0.9 2 2 2s2-0.9 2-2v-4c1.657 0 3-1.343 3-3v-11h-18v11z"></path>
<path d="M24.944 10c-0.304-2.746-1.844-5.119-4.051-6.551l1.001-2.001c0.247-0.494 0.047-1.095-0.447-1.342s-1.095-0.047-1.342 0.447l-1.004 2.009-0.261-0.104c-0.893-0.297-1.848-0.458-2.84-0.458s-1.947 0.161-2.84 0.458l-0.261 0.104-1.004-2.009c-0.247-0.494-0.848-0.694-1.342-0.447s-0.694 0.848-0.447 1.342l1.001 2.001c-2.207 1.433-3.747 3.805-4.051 6.551v1h17.944v-1h-0.056zM13 8c-0.552 0-1-0.448-1-1s0.447-0.999 0.998-1c0.001 0 0.002 0 0.003 0s0.001-0 0.002-0c0.551 0.001 0.998 0.448 0.998 1s-0.448 1-1 1zM19 8c-0.552 0-1-0.448-1-1s0.446-0.999 0.998-1c0 0 0.001 0 0.002 0s0.002-0 0.003-0c0.551 0.001 0.998 0.448 0.998 1s-0.448 1-1 1z"></path>
</symbol>
<symbol id="icon-skype" viewBox="0 0 32 32">
<title>skype</title>
<path d="M13.3 1.169c-0.050-0.031-0.106-0.056-0.156-0.081-0.056 0.012-0.106 0.019-0.162 0.031l0.319 0.050z"></path>
<path d="M1.15 13.156c-0.012 0.056-0.019 0.113-0.025 0.162 0.031 0.050 0.050 0.1 0.081 0.15l-0.056-0.313z"></path>
<path d="M30.837 18.831c0.012-0.056 0.019-0.113 0.031-0.169-0.031-0.050-0.050-0.1-0.081-0.15l0.050 0.319z"></path>
<path d="M18.5 30.719c0.050 0.031 0.106 0.056 0.156 0.081 0.056-0.012 0.113-0.019 0.169-0.025l-0.325-0.056z"></path>
<path d="M30.869 18.663c-0.012 0.056-0.019 0.113-0.031 0.169l-0.056-0.325c0.031 0.056 0.056 0.106 0.087 0.156 0.163-0.9 0.25-1.819 0.25-2.738 0-2.037-0.4-4.019-1.188-5.881-0.762-1.8-1.85-3.419-3.238-4.806s-3.006-2.475-4.8-3.237c-1.863-0.788-3.844-1.188-5.881-1.188-0.963 0-1.925 0.088-2.863 0.269 0 0-0.006 0-0.006 0 0.050 0.025 0.106 0.050 0.156 0.081l-0.319-0.050c0.056-0.012 0.106-0.019 0.162-0.031-1.287-0.681-2.731-1.050-4.194-1.050-2.388 0-4.638 0.931-6.325 2.619s-2.619 3.937-2.619 6.325c0 1.519 0.394 3.019 1.125 4.338 0.012-0.056 0.019-0.113 0.025-0.162l0.056 0.319c-0.031-0.050-0.056-0.1-0.081-0.15-0.15 0.856-0.225 1.731-0.225 2.606 0 2.038 0.4 4.019 1.188 5.881 0.763 1.8 1.85 3.413 3.237 4.8s3.006 2.475 4.806 3.238c1.863 0.788 3.844 1.188 5.881 1.188 0.887 0 1.775-0.081 2.644-0.238-0.050-0.031-0.1-0.056-0.156-0.081l0.325 0.056c-0.056 0.012-0.113 0.019-0.169 0.025 1.337 0.756 2.856 1.163 4.4 1.163 2.387 0 4.637-0.931 6.325-2.619s2.619-3.938 2.619-6.325c-0.006-1.519-0.4-3.019-1.137-4.35zM16.069 25.181c-5.369 0-7.769-2.637-7.769-4.619 0-1.012 0.75-1.725 1.781-1.725 2.3 0 1.7 3.3 5.988 3.3 2.194 0 3.406-1.194 3.406-2.413 0-0.731-0.363-1.544-1.806-1.9l-4.775-1.194c-3.844-0.963-4.544-3.044-4.544-5 0-4.056 3.819-5.581 7.406-5.581 3.306 0 7.2 1.825 7.2 4.263 0 1.044-0.906 1.65-1.938 1.65-1.962 0-1.6-2.713-5.55-2.713-1.963 0-3.044 0.887-3.044 2.156s1.55 1.675 2.894 1.981l3.538 0.787c3.869 0.863 4.85 3.125 4.85 5.25 0 3.294-2.531 5.756-7.637 5.756z"></path>
</symbol>
<symbol id="icon-wikipedia" viewBox="0 0 32 32">
<title>wikipedia</title>
<path d="M30.212 7.3c0 0.1-0.031 0.194-0.094 0.281-0.063 0.081-0.131 0.125-0.212 0.125-0.625 0.063-1.137 0.263-1.531 0.6-0.4 0.338-0.806 0.994-1.225 1.95l-6.45 14.544c-0.044 0.137-0.163 0.2-0.356 0.2-0.15 0-0.269-0.069-0.356-0.2l-3.619-7.563-4.162 7.563c-0.088 0.137-0.2 0.2-0.356 0.2-0.188 0-0.306-0.069-0.369-0.2l-6.331-14.537c-0.394-0.9-0.813-1.531-1.25-1.887s-1.050-0.581-1.831-0.662c-0.069 0-0.131-0.037-0.188-0.106-0.063-0.069-0.087-0.15-0.087-0.244 0-0.237 0.069-0.356 0.2-0.356 0.562 0 1.156 0.025 1.775 0.075 0.575 0.050 1.112 0.075 1.619 0.075 0.513 0 1.125-0.025 1.825-0.075 0.731-0.050 1.381-0.075 1.95-0.075 0.137 0 0.2 0.119 0.2 0.356s-0.044 0.35-0.125 0.35c-0.563 0.044-1.012 0.188-1.338 0.431s-0.487 0.563-0.487 0.963c0 0.2 0.069 0.456 0.2 0.756l5.231 11.825 2.975-5.613-2.769-5.806c-0.5-1.037-0.906-1.706-1.225-2.006s-0.806-0.481-1.456-0.55c-0.063 0-0.113-0.037-0.169-0.106s-0.081-0.15-0.081-0.244c0-0.237 0.056-0.356 0.175-0.356 0.563 0 1.081 0.025 1.556 0.075 0.456 0.050 0.938 0.075 1.456 0.075 0.506 0 1.037-0.025 1.606-0.075 0.581-0.050 1.156-0.075 1.719-0.075 0.137 0 0.2 0.119 0.2 0.356s-0.038 0.35-0.125 0.35c-1.131 0.075-1.694 0.4-1.694 0.963 0 0.25 0.131 0.644 0.394 1.175l1.831 3.719 1.825-3.4c0.25-0.481 0.381-0.887 0.381-1.213 0-0.775-0.563-1.188-1.694-1.237-0.1 0-0.15-0.119-0.15-0.35 0-0.088 0.025-0.162 0.075-0.237s0.1-0.112 0.15-0.112c0.406 0 0.9 0.025 1.494 0.075 0.563 0.050 1.031 0.075 1.394 0.075 0.262 0 0.644-0.025 1.15-0.063 0.637-0.056 1.175-0.088 1.606-0.088 0.1 0 0.15 0.1 0.15 0.3 0 0.269-0.094 0.406-0.275 0.406-0.656 0.069-1.188 0.25-1.587 0.544s-0.9 0.963-1.5 2.013l-2.444 4.475 3.288 6.7 4.856-11.294c0.169-0.412 0.25-0.794 0.25-1.137 0-0.825-0.563-1.263-1.694-1.319-0.1 0-0.15-0.119-0.15-0.35 0-0.237 0.075-0.356 0.225-0.356 0.413 0 0.9 0.025 1.469 0.075 0.525 0.050 0.962 0.075 1.313 0.075 0.375 0 0.8-0.025 1.288-0.075 0.506-0.050 0.962-0.075 1.369-0.075 0.125 0 0.188 0.1 0.188 0.3z"></path>
</symbol>
<symbol id="icon-linkedin" viewBox="0 0 32 32">
<title>linkedin</title>
<path d="M29 0h-26c-1.65 0-3 1.35-3 3v26c0 1.65 1.35 3 3 3h26c1.65 0 3-1.35 3-3v-26c0-1.65-1.35-3-3-3zM12 26h-4v-14h4v14zM10 10c-1.106 0-2-0.894-2-2s0.894-2 2-2c1.106 0 2 0.894 2 2s-0.894 2-2 2zM26 26h-4v-8c0-1.106-0.894-2-2-2s-2 0.894-2 2v8h-4v-14h4v2.481c0.825-1.131 2.087-2.481 3.5-2.481 2.488 0 4.5 2.238 4.5 5v9z"></path>
</symbol>
<symbol id="icon-linkedin2" viewBox="0 0 32 32">
<title>linkedin2</title>
<path d="M12 12h5.535v2.837h0.079c0.77-1.381 2.655-2.837 5.464-2.837 5.842 0 6.922 3.637 6.922 8.367v9.633h-5.769v-8.54c0-2.037-0.042-4.657-3.001-4.657-3.005 0-3.463 2.218-3.463 4.509v8.688h-5.767v-18z"></path>
<path d="M2 12h6v18h-6v-18z"></path>
<path d="M8 7c0 1.657-1.343 3-3 3s-3-1.343-3-3c0-1.657 1.343-3 3-3s3 1.343 3 3z"></path>
</symbol>
<symbol id="icon-stackoverflow" viewBox="0 0 32 32">
<title>stackoverflow</title>
<path d="M32 20v12h-32v-12h4v8h24v-8zM6 22h20v4h-20zM6.473 17.671l0.866-3.905 19.526 4.328-0.866 3.905zM8.739 9.642l1.69-3.625 18.126 8.452-1.69 3.625zM30.991 11.296l-2.435 3.173-15.867-12.175 1.761-2.294h1.82z"></path>
</symbol>
<symbol id="icon-monitor" viewBox="0 0 48 48">
<title>monitor</title>
<path d="M17 39c1.1 0 2 0.9 2 2s-0.9 2-2 2l-7.5 0c-1.38 0-2.5 1.12-2.5 2.5s1.12 2.5 2.5 2.5h28c1.38 0 2.5-1.12 2.5-2.5s-1.12-2.5-2.5-2.5h-7.5c-1.1 0-2-0.9-2-2s0.9-2 2-2h13c2.21 0 4-1.79 4-4l-0-31c0-2.21-1.79-4-4-4h-39c-2.21 0-4 1.79-4 4v31c0 2.21 1.79 4 4 4l13-0zM21 31.5c0-1.38 1.12-2.5 2.5-2.5s2.5 1.12 2.5 2.5-1.12 2.5-2.5 2.5-2.5-1.12-2.5-2.5zM7.2 5h32.6c1.22 0 2.2 0.98 2.2 2.2v15.6c0 1.22-0.98 2.2-2.2 2.2h-32.6c-1.22 0-2.2-0.98-2.2-2.2v-15.6c0-1.22 0.98-2.2 2.2-2.2z"></path>
</symbol>
<symbol id="icon-window1" viewBox="0 0 48 48">
<title>window1</title>
<path d="M26.9 33.37l2.91 2.91c0.959 0.96 2.509 0.96 3.469 0 0.961-0.96 0.961-2.511 0-3.47l-2.899-2.91 2.899-2.9c0 0-10.979-4.69-11.429-4.86-0.24-0.090-0.49-0.14-0.75-0.14-1.16 0-2.1 0.93-2.1 2.080 0 0.27 0.050 0.52 0.14 0.75 0.17 0.43 4.86 11.45 4.86 11.45l2.9-2.91zM0 43c0 2.21 1.79 4 4 4h40c2.21 0 4-1.79 4-4l-0-37c0-2.21-1.79-4-4-4h-40c-2.21 0-4 1.79-4 4v37zM7.2 16h33.6c1.22 0 2.2 0.98 2.2 2.2v21.6c0 1.22-0.98 2.2-2.2 2.2l-33.6-0c-1.22 0-2.2-0.98-2.2-2.2v-21.6c0-1.22 0.98-2.2 2.2-2.2zM5 9.5c0-1.38 1.12-2.5 2.5-2.5s2.5 1.12 2.5 2.5-1.12 2.5-2.5 2.5-2.5-1.12-2.5-2.5zM14 9.5c0-1.38 1.12-2.5 2.5-2.5s2.5 1.12 2.5 2.5-1.12 2.5-2.5 2.5-2.5-1.12-2.5-2.5zM23 9.5c0-1.38 1.12-2.5 2.5-2.5s2.5 1.12 2.5 2.5-1.12 2.5-2.5 2.5-2.5-1.12-2.5-2.5z"></path>
</symbol>
<symbol id="icon-book1" viewBox="0 0 26 28">
<title>book1</title>
<path d="M25.609 7.469c0.391 0.562 0.5 1.297 0.281 2.016l-4.297 14.156c-0.391 1.328-1.766 2.359-3.109 2.359h-14.422c-1.594 0-3.297-1.266-3.875-2.891-0.25-0.703-0.25-1.391-0.031-1.984 0.031-0.313 0.094-0.625 0.109-1 0.016-0.25-0.125-0.453-0.094-0.641 0.063-0.375 0.391-0.641 0.641-1.062 0.469-0.781 1-2.047 1.172-2.859 0.078-0.297-0.078-0.641 0-0.906 0.078-0.297 0.375-0.516 0.531-0.797 0.422-0.719 0.969-2.109 1.047-2.844 0.031-0.328-0.125-0.688-0.031-0.938 0.109-0.359 0.453-0.516 0.688-0.828 0.375-0.516 1-2 1.094-2.828 0.031-0.266-0.125-0.531-0.078-0.812 0.063-0.297 0.438-0.609 0.688-0.969 0.656-0.969 0.781-3.109 2.766-2.547l-0.016 0.047c0.266-0.063 0.531-0.141 0.797-0.141h11.891c0.734 0 1.391 0.328 1.781 0.875 0.406 0.562 0.5 1.297 0.281 2.031l-4.281 14.156c-0.734 2.406-1.141 2.938-3.125 2.938h-13.578c-0.203 0-0.453 0.047-0.594 0.234-0.125 0.187-0.141 0.328-0.016 0.672 0.313 0.906 1.391 1.094 2.25 1.094h14.422c0.578 0 1.25-0.328 1.422-0.891l4.688-15.422c0.094-0.297 0.094-0.609 0.078-0.891 0.359 0.141 0.688 0.359 0.922 0.672zM8.984 7.5c-0.094 0.281 0.063 0.5 0.344 0.5h9.5c0.266 0 0.562-0.219 0.656-0.5l0.328-1c0.094-0.281-0.063-0.5-0.344-0.5h-9.5c-0.266 0-0.562 0.219-0.656 0.5zM7.688 11.5c-0.094 0.281 0.063 0.5 0.344 0.5h9.5c0.266 0 0.562-0.219 0.656-0.5l0.328-1c0.094-0.281-0.063-0.5-0.344-0.5h-9.5c-0.266 0-0.562 0.219-0.656 0.5z"></path>
</symbol>
<symbol id="icon-trophy2" viewBox="0 0 26 28">
<title>trophy2</title>
<path d="M7.156 13.797c-0.656-1.437-1.156-3.344-1.156-5.797h-4v1.5c0 1.531 2.078 3.656 5.156 4.297zM24 9.5v-1.5h-4c0 2.453-0.5 4.359-1.156 5.797 3.078-0.641 5.156-2.766 5.156-4.297zM26 7.5v2c0 2.969-3.594 6.25-8.469 6.484-0.625 0.797-1.203 1.266-1.484 1.484-0.828 0.75-1.047 1.531-1.047 2.531s0.5 2 2 2 3 1 3 2.5v1c0 0.281-0.219 0.5-0.5 0.5h-13c-0.281 0-0.5-0.219-0.5-0.5v-1c0-1.5 1.5-2.5 3-2.5s2-1 2-2-0.219-1.781-1.047-2.531c-0.281-0.219-0.859-0.688-1.484-1.484-4.875-0.234-8.469-3.516-8.469-6.484v-2c0-0.828 0.672-1.5 1.5-1.5h4.5v-1.5c0-1.375 1.125-2.5 2.5-2.5h9c1.375 0 2.5 1.125 2.5 2.5v1.5h4.5c0.828 0 1.5 0.672 1.5 1.5z"></path>
</symbol>
<symbol id="icon-thumbs-up2" viewBox="0 0 20 20">
<title>thumbs-up2</title>
<path d="M11 0h1v3l3 7v8c0 1.105-0.895 2-2 2v0h-8c-1.1 0-2.31-0.84-2.7-1.88l-2.3-6.12v-2c0-1.105 0.895-2 2-2v0h7v-6c0-1.105 0.895-2 2-2v0zM17 10h3v10h-3v-10z"></path>
</symbol>
<symbol id="icon-trophy3" viewBox="0 0 20 20">
<title>trophy3</title>
<path d="M15 9c1.657 0 3-1.343 3-3v0h2c0 0 0 0.001 0 0.001 0 2.761-2.239 5-5 5-0.035 0-0.070-0-0.105-0.001l0.005 0c-0.411 1.966-1.934 3.489-3.867 3.894l-0.033 0.006v2.1l5 2v1h-12v-1l5-2v-2.1c-1.966-0.411-3.489-1.934-3.894-3.867l-0.006-0.033h-0.1c-2.761 0-5-2.239-5-5v0h2c0 1.657 1.343 3 3 3v0-5h-3v2h-2v-4h5v-2h10v2h5v4h-2v-2h-3v5z"></path>
</symbol>
</defs>
</svg>
